<?xml version="1.0" encoding="UTF-8"?>
<svg version="1.1" xmlns="http://www.w3.org/2000/svg" width="1544" height="944">
<path d="M0 0 C64.02 0 128.04 0 194 0 C194 0.66 194 1.32 194 2 C261.98 2 329.96 2 400 2 C400 1.34 400 0.68 400 0 C464.68 0 529.36 0 596 0 C596 0.66 596 1.32 596 2 C605.24 2 614.48 2 624 2 C624 2.66 624 3.32 624 4 C630.6 4 637.2 4 644 4 C644 4.66 644 5.32 644 6 C648.62 6 653.24 6 658 6 C658 6.66 658 7.32 658 8 C662.62 8 667.24 8 672 8 C672 8.66 672 9.32 672 10 C675.3 10 678.6 10 682 10 C682 10.66 682 11.32 682 12 C685.3 12 688.6 12 692 12 C692 12.66 692 13.32 692 14 C695.3 14 698.6 14 702 14 C702 14.66 702 15.32 702 16 C705.3 16 708.6 16 712 16 C712 16.66 712 17.32 712 18 C713.98 18 715.96 18 718 18 C718 18.66 718 19.32 718 20 C721.3 20 724.6 20 728 20 C728 20.66 728 21.32 728 22 C729.98 22 731.96 22 734 22 C734 22.66 734 23.32 734 24 C737.3 24 740.6 24 744 24 C744 24.66 744 25.32 744 26 C745.32 26 746.64 26 748 26 C748 26.66 748 27.32 748 28 C750.64 28 753.28 28 756 28 C756 28.66 756 29.32 756 30 C757.32 30 758.64 30 760 30 C760 30.66 760 31.32 760 32 C762.64 32 765.28 32 768 32 C768 32.66 768 33.32 768 34 C769.32 34 770.64 34 772 34 C772 34.66 772 35.32 772 36 C773.98 36 775.96 36 778 36 C778 36.66 778 37.32 778 38 C779.32 38 780.64 38 782 38 C782 38.66 782 39.32 782 40 C783.98 40 785.96 40 788 40 C788 40.66 788 41.32 788 42 C789.32 42 790.64 42 792 42 C792 42.66 792 43.32 792 44 C793.32 44 794.64 44 796 44 C796 44.66 796 45.32 796 46 C797.32 46 798.64 46 800 46 C800 46.66 800 47.32 800 48 C801.32 48 802.64 48 804 48 C804 48.66 804 49.32 804 50 C805.32 50 806.64 50 808 50 C808 50.66 808 51.32 808 52 C809.32 52 810.64 52 812 52 C812 52.66 812 53.32 812 54 C813.32 54 814.64 54 816 54 C816 54.66 816 55.32 816 56 C817.32 56 818.64 56 820 56 C820 56.66 820 57.32 820 58 C821.32 58 822.64 58 824 58 C824 58.66 824 59.32 824 60 C825.32 60 826.64 60 828 60 C828 60.66 828 61.32 828 62 C829.32 62 830.64 62 832 62 C832 62.66 832 63.32 832 64 C832.66 64 833.32 64 834 64 C834 64.66 834 65.32 834 66 C835.32 66 836.64 66 838 66 C838 66.66 838 67.32 838 68 C839.32 68 840.64 68 842 68 C842 68.66 842 69.32 842 70 C842.66 70 843.32 70 844 70 C844 70.66 844 71.32 844 72 C845.32 72 846.64 72 848 72 C848 72.66 848 73.32 848 74 C849.32 74 850.64 74 852 74 C852 74.66 852 75.32 852 76 C852.66 76 853.32 76 854 76 C854 76.66 854 77.32 854 78 C854.66 78 855.32 78 856 78 C856 78.66 856 79.32 856 80 C856.66 80 857.32 80 858 80 C858 80.66 858 81.32 858 82 C859.32 82 860.64 82 862 82 C862 82.66 862 83.32 862 84 C862.66 84 863.32 84 864 84 C864 84.66 864 85.32 864 86 C865.32 86 866.64 86 868 86 C868 86.66 868 87.32 868 88 C868.66 88 869.32 88 870 88 C870 88.66 870 89.32 870 90 C870.66 90 871.32 90 872 90 C872 90.66 872 91.32 872 92 C873.32 92 874.64 92 876 92 C876 92.66 876 93.32 876 94 C876.66 94 877.32 94 878 94 C878 94.66 878 95.32 878 96 C878.66 96 879.32 96 880 96 C880 96.66 880 97.32 880 98 C880.66 98 881.32 98 882 98 C882 98.66 882 99.32 882 100 C882.66 100 883.32 100 884 100 C884 100.66 884 101.32 884 102 C884.66 102 885.32 102 886 102 C886 102.66 886 103.32 886 104 C886.66 104 887.32 104 888 104 C888 104.66 888 105.32 888 106 C889.32 106 890.64 106 892 106 C892 106.66 892 107.32 892 108 C892.66 108 893.32 108 894 108 C894 108.66 894 109.32 894 110 C894.66 110 895.32 110 896 110 C896 110.66 896 111.32 896 112 C896.66 112 897.32 112 898 112 C898 112.66 898 113.32 898 114 C898.66 114 899.32 114 900 114 C900 114.66 900 115.32 900 116 C900.66 116 901.32 116 902 116 C902 116.66 902 117.32 902 118 C902.66 118 903.32 118 904 118 C904 118.66 904 119.32 904 120 C904.66 120 905.32 120 906 120 C906 120.66 906 121.32 906 122 C906.66 122 907.32 122 908 122 C908 122.66 908 123.32 908 124 C908.66 124 909.32 124 910 124 C910 124.66 910 125.32 910 126 C910.66 126 911.32 126 912 126 C912 126.66 912 127.32 912 128 C912.66 128 913.32 128 914 128 C914 128.66 914 129.32 914 130 C914.66 130 915.32 130 916 130 C916 131.32 916 132.64 916 134 C916.66 134 917.32 134 918 134 C918 134.66 918 135.32 918 136 C918.66 136 919.32 136 920 136 C920 136.66 920 137.32 920 138 C920.66 138 921.32 138 922 138 C922 138.66 922 139.32 922 140 C922.66 140 923.32 140 924 140 C924 141.32 924 142.64 924 144 C924.66 144 925.32 144 926 144 C926 144.66 926 145.32 926 146 C926.66 146 927.32 146 928 146 C928 146.66 928 147.32 928 148 C928.66 148 929.32 148 930 148 C930 149.32 930 150.64 930 152 C930.66 152 931.32 152 932 152 C932 152.66 932 153.32 932 154 C932.66 154 933.32 154 934 154 C934 155.32 934 156.64 934 158 C934.66 158 935.32 158 936 158 C936 158.66 936 159.32 936 160 C936.66 160 937.32 160 938 160 C938 161.32 938 162.64 938 164 C938.66 164 939.32 164 940 164 C940 164.66 940 165.32 940 166 C940.66 166 941.32 166 942 166 C942 167.32 942 168.64 942 170 C942.66 170 943.32 170 944 170 C944 170.66 944 171.32 944 172 C944.66 172 945.32 172 946 172 C946 173.32 946 174.64 946 176 C946.66 176 947.32 176 948 176 C948 177.32 948 178.64 948 180 C948.66 180 949.32 180 950 180 C950 180.66 950 181.32 950 182 C950.66 182 951.32 182 952 182 C952 183.32 952 184.64 952 186 C952.66 186 953.32 186 954 186 C954 187.32 954 188.64 954 190 C954.66 190 955.32 190 956 190 C956 191.32 956 192.64 956 194 C956.66 194 957.32 194 958 194 C958 195.32 958 196.64 958 198 C958.66 198 959.32 198 960 198 C960 199.32 960 200.64 960 202 C960.66 202 961.32 202 962 202 C962 203.32 962 204.64 962 206 C962.66 206 963.32 206 964 206 C964 207.32 964 208.64 964 210 C964.66 210 965.32 210 966 210 C966 211.32 966 212.64 966 214 C966.66 214 967.32 214 968 214 C968 215.32 968 216.64 968 218 C968.66 218 969.32 218 970 218 C970 219.98 970 221.96 970 224 C970.66 224 971.32 224 972 224 C972 225.32 972 226.64 972 228 C972.66 228 973.32 228 974 228 C974 229.32 974 230.64 974 232 C974.66 232 975.32 232 976 232 C976 233.98 976 235.96 976 238 C976.66 238 977.32 238 978 238 C978 239.32 978 240.64 978 242 C978.66 242 979.32 242 980 242 C980 243.98 980 245.96 980 248 C980.66 248 981.32 248 982 248 C982 249.98 982 251.96 982 254 C982.66 254 983.32 254 984 254 C984 255.98 984 257.96 984 260 C984.66 260 985.32 260 986 260 C986 261.98 986 263.96 986 266 C986.66 266 987.32 266 988 266 C988 267.32 988 268.64 988 270 C988.66 270 989.32 270 990 270 C990 272.64 990 275.28 990 278 C990.66 278 991.32 278 992 278 C992 279.98 992 281.96 992 284 C992.66 284 993.32 284 994 284 C994 285.98 994 287.96 994 290 C994.66 290 995.32 290 996 290 C996 291.98 996 293.96 996 296 C996.66 296 997.32 296 998 296 C998 297.98 998 299.96 998 302 C998.66 302 999.32 302 1000 302 C1000 304.64 1000 307.28 1000 310 C1000.66 310 1001.32 310 1002 310 C1002 312.64 1002 315.28 1002 318 C1002.66 318 1003.32 318 1004 318 C1004 319.98 1004 321.96 1004 324 C1004.66 324 1005.32 324 1006 324 C1006 327.3 1006 330.6 1006 334 C1006.66 334 1007.32 334 1008 334 C1008 335.98 1008 337.96 1008 340 C1008.66 340 1009.32 340 1010 340 C1010 343.3 1010 346.6 1010 350 C1010.66 350 1011.32 350 1012 350 C1012 353.3 1012 356.6 1012 360 C1012.66 360 1013.32 360 1014 360 C1014 363.3 1014 366.6 1014 370 C1014.66 370 1015.32 370 1016 370 C1016 373.3 1016 376.6 1016 380 C1016.66 380 1017.32 380 1018 380 C1018 383.3 1018 386.6 1018 390 C1018.66 390 1019.32 390 1020 390 C1020 393.3 1020 396.6 1020 400 C1020.66 400 1021.32 400 1022 400 C1022 403.3 1022 406.6 1022 410 C1022.66 410 1023.32 410 1024 410 C1024 413.3 1024 416.6 1024 420 C1024.66 420 1025.32 420 1026 420 C1026 424.62 1026 429.24 1026 434 C1026.66 434 1027.32 434 1028 434 C1028 437.3 1028 440.6 1028 444 C1028.66 444 1029.32 444 1030 444 C1030 448.62 1030 453.24 1030 458 C1030.66 458 1031.32 458 1032 458 C1032 461.3 1032 464.6 1032 468 C1032.66 468 1033.32 468 1034 468 C1034 472.62 1034 477.24 1034 482 C1034.66 482 1035.32 482 1036 482 C1036 486.62 1036 491.24 1036 496 C1036.66 496 1037.32 496 1038 496 C1038 499.3 1038 502.6 1038 506 C1038.66 506 1039.32 506 1040 506 C1040 510.62 1040 515.24 1040 520 C1040.66 520 1041.32 520 1042 520 C1042 524.62 1042 529.24 1042 534 C1042.66 534 1043.32 534 1044 534 C1044 537.3 1044 540.6 1044 544 C1044.66 544 1045.32 544 1046 544 C1046 548.62 1046 553.24 1046 558 C1046.66 558 1047.32 558 1048 558 C1048 561.96 1048 565.92 1048 570 C1048.66 570 1049.32 570 1050 570 C1050 573.96 1050 577.92 1050 582 C1050.66 582 1051.32 582 1052 582 C1052 585.3 1052 588.6 1052 592 C1052.66 592 1053.32 592 1054 592 C1054 596.62 1054 601.24 1054 606 C1054.66 606 1055.32 606 1056 606 C1056 609.3 1056 612.6 1056 616 C1056.66 616 1057.32 616 1058 616 C1058 619.3 1058 622.6 1058 626 C1058.66 626 1059.32 626 1060 626 C1060 630.62 1060 635.24 1060 640 C1060.66 640 1061.32 640 1062 640 C1062 643.96 1062 647.92 1062 652 C1062.66 652 1063.32 652 1064 652 C1064 655.96 1064 659.92 1064 664 C1064.66 664 1065.32 664 1066 664 C1066 669.28 1066 674.56 1066 680 C1066.66 680 1067.32 680 1068 680 C1068 687.92 1068 695.84 1068 704 C1068.66 704 1069.32 704 1070 704 C1070 728.42 1070 752.84 1070 778 C1069.34 778 1068.68 778 1068 778 C1068 781.96 1068 785.92 1068 790 C1067.34 790 1066.68 790 1066 790 C1066 793.96 1066 797.92 1066 802 C1065.34 802 1064.68 802 1064 802 C1064 804.64 1064 807.28 1064 810 C1063.34 810 1062.68 810 1062 810 C1062 811.98 1062 813.96 1062 816 C1061.34 816 1060.68 816 1060 816 C1060 817.32 1060 818.64 1060 820 C1059.34 820 1058.68 820 1058 820 C1058 821.32 1058 822.64 1058 824 C1057.34 824 1056.68 824 1056 824 C1056 825.98 1056 827.96 1056 830 C1055.34 830 1054.68 830 1054 830 C1054 830.66 1054 831.32 1054 832 C1053.34 832 1052.68 832 1052 832 C1052 833.32 1052 834.64 1052 836 C1051.34 836 1050.68 836 1050 836 C1050 837.32 1050 838.64 1050 840 C1049.34 840 1048.68 840 1048 840 C1048 840.66 1048 841.32 1048 842 C1047.34 842 1046.68 842 1046 842 C1046 843.32 1046 844.64 1046 846 C1045.34 846 1044.68 846 1044 846 C1044 847.32 1044 848.64 1044 850 C1043.34 850 1042.68 850 1042 850 C1042 850.66 1042 851.32 1042 852 C1041.34 852 1040.68 852 1040 852 C1040 852.66 1040 853.32 1040 854 C1039.34 854 1038.68 854 1038 854 C1038 855.32 1038 856.64 1038 858 C1037.34 858 1036.68 858 1036 858 C1036 858.66 1036 859.32 1036 860 C1035.34 860 1034.68 860 1034 860 C1034 860.66 1034 861.32 1034 862 C1033.34 862 1032.68 862 1032 862 C1032 862.66 1032 863.32 1032 864 C1031.34 864 1030.68 864 1030 864 C1030 864.66 1030 865.32 1030 866 C1029.34 866 1028.68 866 1028 866 C1028 866.66 1028 867.32 1028 868 C1027.34 868 1026.68 868 1026 868 C1026 868.66 1026 869.32 1026 870 C1025.34 870 1024.68 870 1024 870 C1024 870.66 1024 871.32 1024 872 C1023.34 872 1022.68 872 1022 872 C1022 872.66 1022 873.32 1022 874 C1021.34 874 1020.68 874 1020 874 C1020 874.66 1020 875.32 1020 876 C1019.34 876 1018.68 876 1018 876 C1018 876.66 1018 877.32 1018 878 C1017.34 878 1016.68 878 1016 878 C1016 878.66 1016 879.32 1016 880 C1015.34 880 1014.68 880 1014 880 C1014 880.66 1014 881.32 1014 882 C1013.34 882 1012.68 882 1012 882 C1012 882.66 1012 883.32 1012 884 C1010.68 884 1009.36 884 1008 884 C1008 884.66 1008 885.32 1008 886 C1007.34 886 1006.68 886 1006 886 C1006 886.66 1006 887.32 1006 888 C1005.34 888 1004.68 888 1004 888 C1004 888.66 1004 889.32 1004 890 C1002.68 890 1001.36 890 1000 890 C1000 890.66 1000 891.32 1000 892 C999.34 892 998.68 892 998 892 C998 892.66 998 893.32 998 894 C997.34 894 996.68 894 996 894 C996 894.66 996 895.32 996 896 C994.68 896 993.36 896 992 896 C992 896.66 992 897.32 992 898 C990.68 898 989.36 898 988 898 C988 898.66 988 899.32 988 900 C987.34 900 986.68 900 986 900 C986 900.66 986 901.32 986 902 C984.68 902 983.36 902 982 902 C982 902.66 982 903.32 982 904 C980.68 904 979.36 904 978 904 C978 904.66 978 905.32 978 906 C976.68 906 975.36 906 974 906 C974 906.66 974 907.32 974 908 C972.68 908 971.36 908 970 908 C970 908.66 970 909.32 970 910 C969.34 910 968.68 910 968 910 C968 910.66 968 911.32 968 912 C966.68 912 965.36 912 964 912 C964 912.66 964 913.32 964 914 C962.02 914 960.04 914 958 914 C958 914.66 958 915.32 958 916 C956.68 916 955.36 916 954 916 C954 916.66 954 917.32 954 918 C952.68 918 951.36 918 950 918 C950 918.66 950 919.32 950 920 C948.02 920 946.04 920 944 920 C944 920.66 944 921.32 944 922 C942.68 922 941.36 922 940 922 C940 922.66 940 923.32 940 924 C937.36 924 934.72 924 932 924 C932 924.66 932 925.32 932 926 C930.02 926 928.04 926 926 926 C926 926.66 926 927.32 926 928 C924.68 928 923.36 928 922 928 C922 928.66 922 929.32 922 930 C919.36 930 916.72 930 914 930 C914 930.66 914 931.32 914 932 C911.36 932 908.72 932 906 932 C906 932.66 906 933.32 906 934 C902.7 934 899.4 934 896 934 C896 934.66 896 935.32 896 936 C892.04 936 888.08 936 884 936 C884 936.66 884 937.32 884 938 C881.36 938 878.72 938 876 938 C876 938.66 876 939.32 876 940 C871.38 940 866.76 940 862 940 C862 940.66 862 941.32 862 942 C856.06 942 850.12 942 844 942 C844 942.66 844 943.32 844 944 C824.86 944 805.72 944 786 944 C786 943.34 786 942.68 786 942 C782.7 942 779.4 942 776 942 C776 941.34 776 940.68 776 940 C771.38 940 766.76 940 762 940 C762 939.34 762 938.68 762 938 C758.04 938 754.08 938 750 938 C750 937.34 750 936.68 750 936 C746.7 936 743.4 936 740 936 C740 935.34 740 934.68 740 934 C736.04 934 732.08 934 728 934 C728 933.34 728 932.68 728 932 C726.68 932 725.36 932 724 932 C724 931.34 724 930.68 724 930 C721.36 930 718.72 930 716 930 C716 929.34 716 928.68 716 928 C713.36 928 710.72 928 708 928 C708 927.34 708 926.68 708 926 C706.68 926 705.36 926 704 926 C704 925.34 704 924.68 704 924 C702.02 924 700.04 924 698 924 C698 923.34 698 922.68 698 922 C696.02 922 694.04 922 692 922 C692 921.34 692 920.68 692 920 C690.68 920 689.36 920 688 920 C688 919.34 688 918.68 688 918 C686.68 918 685.36 918 684 918 C684 917.34 684 916.68 684 916 C682.68 916 681.36 916 680 916 C680 915.34 680 914.68 680 914 C678.68 914 677.36 914 676 914 C676 913.34 676 912.68 676 912 C674.68 912 673.36 912 672 912 C672 911.34 672 910.68 672 910 C671.34 910 670.68 910 670 910 C670 909.34 670 908.68 670 908 C668.68 908 667.36 908 666 908 C666 907.34 666 906.68 666 906 C664.68 906 663.36 906 662 906 C662 905.34 662 904.68 662 904 C661.34 904 660.68 904 660 904 C660 903.34 660 902.68 660 902 C658.68 902 657.36 902 656 902 C656 901.34 656 900.68 656 900 C655.34 900 654.68 900 654 900 C654 899.34 654 898.68 654 898 C652.68 898 651.36 898 650 898 C650 897.34 650 896.68 650 896 C649.34 896 648.68 896 648 896 C648 895.34 648 894.68 648 894 C647.34 894 646.68 894 646 894 C646 893.34 646 892.68 646 892 C645.34 892 644.68 892 644 892 C644 891.34 644 890.68 644 890 C642.68 890 641.36 890 640 890 C640 889.34 640 888.68 640 888 C639.34 888 638.68 888 638 888 C638 887.34 638 886.68 638 886 C637.34 886 636.68 886 636 886 C636 885.34 636 884.68 636 884 C635.34 884 634.68 884 634 884 C634 883.34 634 882.68 634 882 C632.68 882 631.36 882 630 882 C630 881.34 630 880.68 630 880 C629.34 880 628.68 880 628 880 C628 879.34 628 878.68 628 878 C627.34 878 626.68 878 626 878 C626 877.34 626 876.68 626 876 C625.34 876 624.68 876 624 876 C624 875.34 624 874.68 624 874 C623.34 874 622.68 874 622 874 C622 873.34 622 872.68 622 872 C621.34 872 620.68 872 620 872 C620 871.34 620 870.68 620 870 C619.34 870 618.68 870 618 870 C618 869.34 618 868.68 618 868 C617.34 868 616.68 868 616 868 C616 867.34 616 866.68 616 866 C615.34 866 614.68 866 614 866 C614 865.34 614 864.68 614 864 C613.34 864 612.68 864 612 864 C612 863.34 612 862.68 612 862 C611.34 862 610.68 862 610 862 C610 861.34 610 860.68 610 860 C609.34 860 608.68 860 608 860 C608 859.34 608 858.68 608 858 C607.34 858 606.68 858 606 858 C606 857.34 606 856.68 606 856 C605.34 856 604.68 856 604 856 C604 855.34 604 854.68 604 854 C603.34 854 602.68 854 602 854 C602 853.34 602 852.68 602 852 C601.34 852 600.68 852 600 852 C600 851.34 600 850.68 600 850 C599.34 850 598.68 850 598 850 C598 849.34 598 848.68 598 848 C597.34 848 596.68 848 596 848 C596 847.34 596 846.68 596 846 C595.34 846 594.68 846 594 846 C594 845.34 594 844.68 594 844 C593.34 844 592.68 844 592 844 C592 843.34 592 842.68 592 842 C591.34 842 590.68 842 590 842 C590 841.34 590 840.68 590 840 C589.34 840 588.68 840 588 840 C588 838.68 588 837.36 588 836 C587.34 836 586.68 836 586 836 C586 835.34 586 834.68 586 834 C585.34 834 584.68 834 584 834 C584 833.34 584 832.68 584 832 C583.34 832 582.68 832 582 832 C582 831.34 582 830.68 582 830 C581.34 830 580.68 830 580 830 C580 829.34 580 828.68 580 828 C579.34 828 578.68 828 578 828 C578 827.34 578 826.68 578 826 C577.34 826 576.68 826 576 826 C576 825.34 576 824.68 576 824 C575.34 824 574.68 824 574 824 C574 823.34 574 822.68 574 822 C573.34 822 572.68 822 572 822 C572 820.68 572 819.36 572 818 C571.34 818 570.68 818 570 818 C570 817.34 570 816.68 570 816 C569.34 816 568.68 816 568 816 C568 815.34 568 814.68 568 814 C567.34 814 566.68 814 566 814 C566 813.34 566 812.68 566 812 C565.34 812 564.68 812 564 812 C564 810.68 564 809.36 564 808 C563.34 808 562.68 808 562 808 C562 807.34 562 806.68 562 806 C561.34 806 560.68 806 560 806 C560 805.34 560 804.68 560 804 C559.34 804 558.68 804 558 804 C558 803.34 558 802.68 558 802 C557.34 802 556.68 802 556 802 C556 801.34 556 800.68 556 800 C555.34 800 554.68 800 554 800 C554 799.34 554 798.68 554 798 C553.34 798 552.68 798 552 798 C552 796.68 552 795.36 552 794 C551.34 794 550.68 794 550 794 C550 793.34 550 792.68 550 792 C549.34 792 548.68 792 548 792 C548 791.34 548 790.68 548 790 C547.34 790 546.68 790 546 790 C546 789.34 546 788.68 546 788 C545.34 788 544.68 788 544 788 C544 786.68 544 785.36 544 784 C543.34 784 542.68 784 542 784 C542 783.34 542 782.68 542 782 C541.34 782 540.68 782 540 782 C540 781.34 540 780.68 540 780 C539.34 780 538.68 780 538 780 C538 779.34 538 778.68 538 778 C537.34 778 536.68 778 536 778 C536 776.68 536 775.36 536 774 C535.34 774 534.68 774 534 774 C534 773.34 534 772.68 534 772 C533.34 772 532.68 772 532 772 C532 771.34 532 770.68 532 770 C531.34 770 530.68 770 530 770 C530 768.68 530 767.36 530 766 C529.34 766 528.68 766 528 766 C528 765.34 528 764.68 528 764 C527.34 764 526.68 764 526 764 C526 763.34 526 762.68 526 762 C525.34 762 524.68 762 524 762 C524 761.34 524 760.68 524 760 C523.34 760 522.68 760 522 760 C522 758.68 522 757.36 522 756 C521.34 756 520.68 756 520 756 C520 755.34 520 754.68 520 754 C519.34 754 518.68 754 518 754 C518 753.34 518 752.68 518 752 C517.34 752 516.68 752 516 752 C516 751.34 516 750.68 516 750 C515.34 750 514.68 750 514 750 C514 748.68 514 747.36 514 746 C513.34 746 512.68 746 512 746 C512 745.34 512 744.68 512 744 C511.34 744 510.68 744 510 744 C510 742.68 510 741.36 510 740 C509.34 740 508.68 740 508 740 C508 739.34 508 738.68 508 738 C507.34 738 506.68 738 506 738 C506 737.34 506 736.68 506 736 C505.34 736 504.68 736 504 736 C504 735.34 504 734.68 504 734 C503.34 734 502.68 734 502 734 C502 733.34 502 732.68 502 732 C501.34 732 500.68 732 500 732 C500 730.68 500 729.36 500 728 C499.34 728 498.68 728 498 728 C498 727.34 498 726.68 498 726 C497.34 726 496.68 726 496 726 C496 725.34 496 724.68 496 724 C495.34 724 494.68 724 494 724 C494 722.68 494 721.36 494 720 C493.34 720 492.68 720 492 720 C492 719.34 492 718.68 492 718 C491.34 718 490.68 718 490 718 C490 717.34 490 716.68 490 716 C489.34 716 488.68 716 488 716 C488 714.68 488 713.36 488 712 C487.34 712 486.68 712 486 712 C486 711.34 486 710.68 486 710 C485.34 710 484.68 710 484 710 C484 709.34 484 708.68 484 708 C483.34 708 482.68 708 482 708 C482 707.34 482 706.68 482 706 C481.34 706 480.68 706 480 706 C480 705.34 480 704.68 480 704 C479.34 704 478.68 704 478 704 C478 703.34 478 702.68 478 702 C477.34 702 476.68 702 476 702 C476 700.68 476 699.36 476 698 C475.34 698 474.68 698 474 698 C474 697.34 474 696.68 474 696 C473.34 696 472.68 696 472 696 C472 695.34 472 694.68 472 694 C471.34 694 470.68 694 470 694 C470 693.34 470 692.68 470 692 C469.34 692 468.68 692 468 692 C468 690.68 468 689.36 468 688 C467.34 688 466.68 688 466 688 C466 687.34 466 686.68 466 686 C465.34 686 464.68 686 464 686 C464 685.34 464 684.68 464 684 C463.34 684 462.68 684 462 684 C462 683.34 462 682.68 462 682 C461.34 682 460.68 682 460 682 C460 680.68 460 679.36 460 678 C459.34 678 458.68 678 458 678 C458 677.34 458 676.68 458 676 C457.34 676 456.68 676 456 676 C456 675.34 456 674.68 456 674 C455.34 674 454.68 674 454 674 C454 673.34 454 672.68 454 672 C453.34 672 452.68 672 452 672 C452 671.34 452 670.68 452 670 C451.34 670 450.68 670 450 670 C450 669.34 450 668.68 450 668 C449.34 668 448.68 668 448 668 C448 666.68 448 665.36 448 664 C447.34 664 446.68 664 446 664 C446 663.34 446 662.68 446 662 C445.34 662 444.68 662 444 662 C444 661.34 444 660.68 444 660 C443.34 660 442.68 660 442 660 C442 659.34 442 658.68 442 658 C441.34 658 440.68 658 440 658 C440 657.34 440 656.68 440 656 C439.34 656 438.68 656 438 656 C438 655.34 438 654.68 438 654 C437.34 654 436.68 654 436 654 C436 653.34 436 652.68 436 652 C435.34 652 434.68 652 434 652 C434 651.34 434 650.68 434 650 C433.34 650 432.68 650 432 650 C432 649.34 432 648.68 432 648 C431.34 648 430.68 648 430 648 C430 647.34 430 646.68 430 646 C429.34 646 428.68 646 428 646 C428 645.34 428 644.68 428 644 C427.34 644 426.68 644 426 644 C426 643.34 426 642.68 426 642 C425.34 642 424.68 642 424 642 C424 641.34 424 640.68 424 640 C423.34 640 422.68 640 422 640 C422 639.34 422 638.68 422 638 C421.34 638 420.68 638 420 638 C420 637.34 420 636.68 420 636 C419.34 636 418.68 636 418 636 C418 635.34 418 634.68 418 634 C417.34 634 416.68 634 416 634 C416 633.34 416 632.68 416 632 C415.34 632 414.68 632 414 632 C414 631.34 414 630.68 414 630 C413.34 630 412.68 630 412 630 C412 629.34 412 628.68 412 628 C411.34 628 410.68 628 410 628 C410 627.34 410 626.68 410 626 C409.34 626 408.68 626 408 626 C408 625.34 408 624.68 408 624 C407.34 624 406.68 624 406 624 C406 623.34 406 622.68 406 622 C405.34 622 404.68 622 404 622 C404 621.34 404 620.68 404 620 C403.34 620 402.68 620 402 620 C402 619.34 402 618.68 402 618 C401.34 618 400.68 618 400 618 C400 617.34 400 616.68 400 616 C399.34 616 398.68 616 398 616 C398 615.34 398 614.68 398 614 C397.34 614 396.68 614 396 614 C396 613.34 396 612.68 396 612 C395.34 612 394.68 612 394 612 C394 611.34 394 610.68 394 610 C393.34 610 392.68 610 392 610 C392 609.34 392 608.68 392 608 C391.34 608 390.68 608 390 608 C390 607.34 390 606.68 390 606 C388.68 606 387.36 606 386 606 C386 605.34 386 604.68 386 604 C385.34 604 384.68 604 384 604 C384 603.34 384 602.68 384 602 C382.68 602 381.36 602 380 602 C380 601.34 380 600.68 380 600 C379.34 600 378.68 600 378 600 C378 599.34 378 598.68 378 598 C376.68 598 375.36 598 374 598 C374 597.34 374 596.68 374 596 C373.34 596 372.68 596 372 596 C372 595.34 372 594.68 372 594 C371.34 594 370.68 594 370 594 C370 593.34 370 592.68 370 592 C368.68 592 367.36 592 366 592 C366 591.34 366 590.68 366 590 C365.34 590 364.68 590 364 590 C364 589.34 364 588.68 364 588 C362.68 588 361.36 588 360 588 C360 587.34 360 586.68 360 586 C358.68 586 357.36 586 356 586 C356 585.34 356 584.68 356 584 C354.68 584 353.36 584 352 584 C352 583.34 352 582.68 352 582 C350.68 582 349.36 582 348 582 C348 581.34 348 580.68 348 580 C346.68 580 345.36 580 344 580 C344 579.34 344 578.68 344 578 C342.02 578 340.04 578 338 578 C338 577.34 338 576.68 338 576 C336.68 576 335.36 576 334 576 C334 575.34 334 574.68 334 574 C332.02 574 330.04 574 328 574 C328 573.34 328 572.68 328 572 C325.36 572 322.72 572 320 572 C320 571.34 320 570.68 320 570 C305.48 570 290.96 570 276 570 C276 570.66 276 571.32 276 572 C274.02 572 272.04 572 270 572 C270 572.66 270 573.32 270 574 C268.02 574 266.04 574 264 574 C264 574.66 264 575.32 264 576 C262.02 576 260.04 576 258 576 C258 576.66 258 577.32 258 578 C256.68 578 255.36 578 254 578 C254 578.66 254 579.32 254 580 C252.68 580 251.36 580 250 580 C250 580.66 250 581.32 250 582 C248.02 582 246.04 582 244 582 C244 582.66 244 583.32 244 584 C243.34 584 242.68 584 242 584 C242 584.66 242 585.32 242 586 C240.68 586 239.36 586 238 586 C238 586.66 238 587.32 238 588 C236.68 588 235.36 588 234 588 C234 588.66 234 589.32 234 590 C233.34 590 232.68 590 232 590 C232 590.66 232 591.32 232 592 C230.68 592 229.36 592 228 592 C228 592.66 228 593.32 228 594 C226.68 594 225.36 594 224 594 C224 594.66 224 595.32 224 596 C223.34 596 222.68 596 222 596 C222 596.66 222 597.32 222 598 C221.34 598 220.68 598 220 598 C220 598.66 220 599.32 220 600 C218.68 600 217.36 600 216 600 C216 600.66 216 601.32 216 602 C215.34 602 214.68 602 214 602 C214 602.66 214 603.32 214 604 C213.34 604 212.68 604 212 604 C212 604.66 212 605.32 212 606 C210.68 606 209.36 606 208 606 C208 606.66 208 607.32 208 608 C207.34 608 206.68 608 206 608 C206 608.66 206 609.32 206 610 C205.34 610 204.68 610 204 610 C204 610.66 204 611.32 204 612 C203.34 612 202.68 612 202 612 C202 612.66 202 613.32 202 614 C201.34 614 200.68 614 200 614 C200 614.66 200 615.32 200 616 C199.34 616 198.68 616 198 616 C198 616.66 198 617.32 198 618 C197.34 618 196.68 618 196 618 C196 618.66 196 619.32 196 620 C195.34 620 194.68 620 194 620 C194 620.66 194 621.32 194 622 C193.34 622 192.68 622 192 622 C192 622.66 192 623.32 192 624 C191.34 624 190.68 624 190 624 C190 624.66 190 625.32 190 626 C189.34 626 188.68 626 188 626 C188 626.66 188 627.32 188 628 C187.34 628 186.68 628 186 628 C186 628.66 186 629.32 186 630 C185.34 630 184.68 630 184 630 C184 630.66 184 631.32 184 632 C183.34 632 182.68 632 182 632 C182 632.66 182 633.32 182 634 C181.34 634 180.68 634 180 634 C180 634.66 180 635.32 180 636 C179.34 636 178.68 636 178 636 C178 636.66 178 637.32 178 638 C177.34 638 176.68 638 176 638 C176 638.66 176 639.32 176 640 C175.34 640 174.68 640 174 640 C174 640.66 174 641.32 174 642 C173.34 642 172.68 642 172 642 C172 642.66 172 643.32 172 644 C171.34 644 170.68 644 170 644 C170 644.66 170 645.32 170 646 C169.34 646 168.68 646 168 646 C168 646.66 168 647.32 168 648 C167.34 648 166.68 648 166 648 C166 648.66 166 649.32 166 650 C165.34 650 164.68 650 164 650 C164 650.66 164 651.32 164 652 C163.34 652 162.68 652 162 652 C162 652.66 162 653.32 162 654 C161.34 654 160.68 654 160 654 C160 654.66 160 655.32 160 656 C159.34 656 158.68 656 158 656 C158 656.66 158 657.32 158 658 C157.34 658 156.68 658 156 658 C156 658.66 156 659.32 156 660 C155.34 660 154.68 660 154 660 C154 660.66 154 661.32 154 662 C153.34 662 152.68 662 152 662 C152 662.66 152 663.32 152 664 C151.34 664 150.68 664 150 664 C150 664.66 150 665.32 150 666 C149.34 666 148.68 666 148 666 C148 666.66 148 667.32 148 668 C147.34 668 146.68 668 146 668 C146 669.32 146 670.64 146 672 C145.34 672 144.68 672 144 672 C144 672.66 144 673.32 144 674 C143.34 674 142.68 674 142 674 C142 674.66 142 675.32 142 676 C141.34 676 140.68 676 140 676 C140 677.32 140 678.64 140 680 C139.34 680 138.68 680 138 680 C138 680.66 138 681.32 138 682 C137.34 682 136.68 682 136 682 C136 682.66 136 683.32 136 684 C135.34 684 134.68 684 134 684 C134 684.66 134 685.32 134 686 C133.34 686 132.68 686 132 686 C132 686.66 132 687.32 132 688 C131.34 688 130.68 688 130 688 C130 688.66 130 689.32 130 690 C129.34 690 128.68 690 128 690 C128 690.66 128 691.32 128 692 C127.34 692 126.68 692 126 692 C126 693.32 126 694.64 126 696 C125.34 696 124.68 696 124 696 C124 696.66 124 697.32 124 698 C123.34 698 122.68 698 122 698 C122 698.66 122 699.32 122 700 C121.34 700 120.68 700 120 700 C120 700.66 120 701.32 120 702 C119.34 702 118.68 702 118 702 C118 703.32 118 704.64 118 706 C117.34 706 116.68 706 116 706 C116 706.66 116 707.32 116 708 C115.34 708 114.68 708 114 708 C114 708.66 114 709.32 114 710 C113.34 710 112.68 710 112 710 C112 710.66 112 711.32 112 712 C111.34 712 110.68 712 110 712 C110 713.32 110 714.64 110 716 C109.34 716 108.68 716 108 716 C108 716.66 108 717.32 108 718 C107.34 718 106.68 718 106 718 C106 718.66 106 719.32 106 720 C105.34 720 104.68 720 104 720 C104 720.66 104 721.32 104 722 C103.34 722 102.68 722 102 722 C102 723.32 102 724.64 102 726 C101.34 726 100.68 726 100 726 C100 726.66 100 727.32 100 728 C99.34 728 98.68 728 98 728 C98 729.32 98 730.64 98 732 C97.34 732 96.68 732 96 732 C96 732.66 96 733.32 96 734 C95.34 734 94.68 734 94 734 C94 734.66 94 735.32 94 736 C93.34 736 92.68 736 92 736 C92 736.66 92 737.32 92 738 C91.34 738 90.68 738 90 738 C90 739.32 90 740.64 90 742 C89.34 742 88.68 742 88 742 C88 742.66 88 743.32 88 744 C87.34 744 86.68 744 86 744 C86 744.66 86 745.32 86 746 C85.34 746 84.68 746 84 746 C84 746.66 84 747.32 84 748 C83.34 748 82.68 748 82 748 C82 749.32 82 750.64 82 752 C81.34 752 80.68 752 80 752 C80 752.66 80 753.32 80 754 C79.34 754 78.68 754 78 754 C78 754.66 78 755.32 78 756 C77.34 756 76.68 756 76 756 C76 757.32 76 758.64 76 760 C75.34 760 74.68 760 74 760 C74 760.66 74 761.32 74 762 C73.34 762 72.68 762 72 762 C72 762.66 72 763.32 72 764 C71.34 764 70.68 764 70 764 C70 764.66 70 765.32 70 766 C69.34 766 68.68 766 68 766 C68 766.66 68 767.32 68 768 C67.34 768 66.68 768 66 768 C66 769.32 66 770.64 66 772 C65.34 772 64.68 772 64 772 C64 772.66 64 773.32 64 774 C63.34 774 62.68 774 62 774 C62 774.66 62 775.32 62 776 C61.34 776 60.68 776 60 776 C60 777.32 60 778.64 60 780 C59.34 780 58.68 780 58 780 C58 780.66 58 781.32 58 782 C57.34 782 56.68 782 56 782 C56 782.66 56 783.32 56 784 C55.34 784 54.68 784 54 784 C54 785.32 54 786.64 54 788 C53.34 788 52.68 788 52 788 C52 788.66 52 789.32 52 790 C51.34 790 50.68 790 50 790 C50 790.66 50 791.32 50 792 C49.34 792 48.68 792 48 792 C48 792.66 48 793.32 48 794 C47.34 794 46.68 794 46 794 C46 794.66 46 795.32 46 796 C45.34 796 44.68 796 44 796 C44 797.32 44 798.64 44 800 C43.34 800 42.68 800 42 800 C42 800.66 42 801.32 42 802 C41.34 802 40.68 802 40 802 C40 802.66 40 803.32 40 804 C39.34 804 38.68 804 38 804 C38 804.66 38 805.32 38 806 C37.34 806 36.68 806 36 806 C36 806.66 36 807.32 36 808 C35.34 808 34.68 808 34 808 C34 809.32 34 810.64 34 812 C33.34 812 32.68 812 32 812 C32 812.66 32 813.32 32 814 C31.34 814 30.68 814 30 814 C30 814.66 30 815.32 30 816 C29.34 816 28.68 816 28 816 C28 816.66 28 817.32 28 818 C27.34 818 26.68 818 26 818 C26 818.66 26 819.32 26 820 C25.34 820 24.68 820 24 820 C24 820.66 24 821.32 24 822 C23.34 822 22.68 822 22 822 C22 823.32 22 824.64 22 826 C21.34 826 20.68 826 20 826 C20 826.66 20 827.32 20 828 C19.34 828 18.68 828 18 828 C18 828.66 18 829.32 18 830 C17.34 830 16.68 830 16 830 C16 830.66 16 831.32 16 832 C15.34 832 14.68 832 14 832 C14 832.66 14 833.32 14 834 C13.34 834 12.68 834 12 834 C12 834.66 12 835.32 12 836 C11.34 836 10.68 836 10 836 C10 836.66 10 837.32 10 838 C9.34 838 8.68 838 8 838 C8 838.66 8 839.32 8 840 C7.34 840 6.68 840 6 840 C6 840.66 6 841.32 6 842 C5.34 842 4.68 842 4 842 C4 842.66 4 843.32 4 844 C3.34 844 2.68 844 2 844 C2 844.66 2 845.32 2 846 C1.34 846 0.68 846 0 846 C0 846.66 0 847.32 0 848 C-0.66 848 -1.32 848 -2 848 C-2 848.66 -2 849.32 -2 850 C-2.66 850 -3.32 850 -4 850 C-4 850.66 -4 851.32 -4 852 C-4.66 852 -5.32 852 -6 852 C-6 852.66 -6 853.32 -6 854 C-6.66 854 -7.32 854 -8 854 C-8 854.66 -8 855.32 -8 856 C-8.66 856 -9.32 856 -10 856 C-10 856.66 -10 857.32 -10 858 C-10.66 858 -11.32 858 -12 858 C-12 858.66 -12 859.32 -12 860 C-12.66 860 -13.32 860 -14 860 C-14 860.66 -14 861.32 -14 862 C-14.66 862 -15.32 862 -16 862 C-16 862.66 -16 863.32 -16 864 C-16.66 864 -17.32 864 -18 864 C-18 864.66 -18 865.32 -18 866 C-18.66 866 -19.32 866 -20 866 C-20 866.66 -20 867.32 -20 868 C-20.66 868 -21.32 868 -22 868 C-22 868.66 -22 869.32 -22 870 C-22.66 870 -23.32 870 -24 870 C-24 870.66 -24 871.32 -24 872 C-24.66 872 -25.32 872 -26 872 C-26 872.66 -26 873.32 -26 874 C-26.66 874 -27.32 874 -28 874 C-28 874.66 -28 875.32 -28 876 C-28.66 876 -29.32 876 -30 876 C-30 876.66 -30 877.32 -30 878 C-30.66 878 -31.32 878 -32 878 C-32 878.66 -32 879.32 -32 880 C-32.66 880 -33.32 880 -34 880 C-34 880.66 -34 881.32 -34 882 C-34.66 882 -35.32 882 -36 882 C-36 882.66 -36 883.32 -36 884 C-36.66 884 -37.32 884 -38 884 C-38 884.66 -38 885.32 -38 886 C-38.66 886 -39.32 886 -40 886 C-40 886.66 -40 887.32 -40 888 C-41.32 888 -42.64 888 -44 888 C-44 888.66 -44 889.32 -44 890 C-44.66 890 -45.32 890 -46 890 C-46 890.66 -46 891.32 -46 892 C-46.66 892 -47.32 892 -48 892 C-48 892.66 -48 893.32 -48 894 C-49.32 894 -50.64 894 -52 894 C-52 894.66 -52 895.32 -52 896 C-52.66 896 -53.32 896 -54 896 C-54 896.66 -54 897.32 -54 898 C-54.66 898 -55.32 898 -56 898 C-56 898.66 -56 899.32 -56 900 C-57.32 900 -58.64 900 -60 900 C-60 900.66 -60 901.32 -60 902 C-60.66 902 -61.32 902 -62 902 C-62 902.66 -62 903.32 -62 904 C-63.32 904 -64.64 904 -66 904 C-66 904.66 -66 905.32 -66 906 C-66.66 906 -67.32 906 -68 906 C-68 906.66 -68 907.32 -68 908 C-69.32 908 -70.64 908 -72 908 C-72 908.66 -72 909.32 -72 910 C-73.32 910 -74.64 910 -76 910 C-76 910.66 -76 911.32 -76 912 C-76.66 912 -77.32 912 -78 912 C-78 912.66 -78 913.32 -78 914 C-79.98 914 -81.96 914 -84 914 C-84 914.66 -84 915.32 -84 916 C-85.32 916 -86.64 916 -88 916 C-88 916.66 -88 917.32 -88 918 C-89.32 918 -90.64 918 -92 918 C-92 918.66 -92 919.32 -92 920 C-93.32 920 -94.64 920 -96 920 C-96 920.66 -96 921.32 -96 922 C-97.32 922 -98.64 922 -100 922 C-100 922.66 -100 923.32 -100 924 C-101.98 924 -103.96 924 -106 924 C-106 924.66 -106 925.32 -106 926 C-107.98 926 -109.96 926 -112 926 C-112 926.66 -112 927.32 -112 928 C-113.32 928 -114.64 928 -116 928 C-116 928.66 -116 929.32 -116 930 C-118.64 930 -121.28 930 -124 930 C-124 930.66 -124 931.32 -124 932 C-126.64 932 -129.28 932 -132 932 C-132 932.66 -132 933.32 -132 934 C-134.64 934 -137.28 934 -140 934 C-140 934.66 -140 935.32 -140 936 C-143.96 936 -147.92 936 -152 936 C-152 936.66 -152 937.32 -152 938 C-155.3 938 -158.6 938 -162 938 C-162 938.66 -162 939.32 -162 940 C-166.62 940 -171.24 940 -176 940 C-176 940.66 -176 941.32 -176 942 C-179.96 942 -183.92 942 -188 942 C-188 942.66 -188 943.32 -188 944 C-208.46 944 -228.92 944 -250 944 C-250 943.34 -250 942.68 -250 942 C-253.3 942 -256.6 942 -260 942 C-260 941.34 -260 940.68 -260 940 C-265.94 940 -271.88 940 -278 940 C-278 939.34 -278 938.68 -278 938 C-280.64 938 -283.28 938 -286 938 C-286 937.34 -286 936.68 -286 936 C-289.3 936 -292.6 936 -296 936 C-296 935.34 -296 934.68 -296 934 C-299.3 934 -302.6 934 -306 934 C-306 933.34 -306 932.68 -306 932 C-309.3 932 -312.6 932 -316 932 C-316 931.34 -316 930.68 -316 930 C-318.64 930 -321.28 930 -324 930 C-324 929.34 -324 928.68 -324 928 C-325.32 928 -326.64 928 -328 928 C-328 927.34 -328 926.68 -328 926 C-330.64 926 -333.28 926 -336 926 C-336 925.34 -336 924.68 -336 924 C-337.32 924 -338.64 924 -340 924 C-340 923.34 -340 922.68 -340 922 C-342.64 922 -345.28 922 -348 922 C-348 921.34 -348 920.68 -348 920 C-349.32 920 -350.64 920 -352 920 C-352 919.34 -352 918.68 -352 918 C-353.32 918 -354.64 918 -356 918 C-356 917.34 -356 916.68 -356 916 C-357.98 916 -359.96 916 -362 916 C-362 915.34 -362 914.68 -362 914 C-363.32 914 -364.64 914 -366 914 C-366 913.34 -366 912.68 -366 912 C-367.32 912 -368.64 912 -370 912 C-370 911.34 -370 910.68 -370 910 C-371.32 910 -372.64 910 -374 910 C-374 909.34 -374 908.68 -374 908 C-375.32 908 -376.64 908 -378 908 C-378 907.34 -378 906.68 -378 906 C-379.32 906 -380.64 906 -382 906 C-382 905.34 -382 904.68 -382 904 C-382.66 904 -383.32 904 -384 904 C-384 903.34 -384 902.68 -384 902 C-385.32 902 -386.64 902 -388 902 C-388 901.34 -388 900.68 -388 900 C-389.32 900 -390.64 900 -392 900 C-392 899.34 -392 898.68 -392 898 C-393.32 898 -394.64 898 -396 898 C-396 897.34 -396 896.68 -396 896 C-396.66 896 -397.32 896 -398 896 C-398 895.34 -398 894.68 -398 894 C-399.32 894 -400.64 894 -402 894 C-402 893.34 -402 892.68 -402 892 C-402.66 892 -403.32 892 -404 892 C-404 891.34 -404 890.68 -404 890 C-404.66 890 -405.32 890 -406 890 C-406 889.34 -406 888.68 -406 888 C-406.66 888 -407.32 888 -408 888 C-408 887.34 -408 886.68 -408 886 C-409.32 886 -410.64 886 -412 886 C-412 885.34 -412 884.68 -412 884 C-412.66 884 -413.32 884 -414 884 C-414 883.34 -414 882.68 -414 882 C-414.66 882 -415.32 882 -416 882 C-416 881.34 -416 880.68 -416 880 C-417.32 880 -418.64 880 -420 880 C-420 879.34 -420 878.68 -420 878 C-420.66 878 -421.32 878 -422 878 C-422 877.34 -422 876.68 -422 876 C-422.66 876 -423.32 876 -424 876 C-424 875.34 -424 874.68 -424 874 C-424.66 874 -425.32 874 -426 874 C-426 873.34 -426 872.68 -426 872 C-426.66 872 -427.32 872 -428 872 C-428 871.34 -428 870.68 -428 870 C-428.66 870 -429.32 870 -430 870 C-430 869.34 -430 868.68 -430 868 C-430.66 868 -431.32 868 -432 868 C-432 867.34 -432 866.68 -432 866 C-432.66 866 -433.32 866 -434 866 C-434 865.34 -434 864.68 -434 864 C-434.66 864 -435.32 864 -436 864 C-436 862.68 -436 861.36 -436 860 C-436.66 860 -437.32 860 -438 860 C-438 859.34 -438 858.68 -438 858 C-438.66 858 -439.32 858 -440 858 C-440 857.34 -440 856.68 -440 856 C-440.66 856 -441.32 856 -442 856 C-442 855.34 -442 854.68 -442 854 C-442.66 854 -443.32 854 -444 854 C-444 852.68 -444 851.36 -444 850 C-444.66 850 -445.32 850 -446 850 C-446 849.34 -446 848.68 -446 848 C-446.66 848 -447.32 848 -448 848 C-448 846.68 -448 845.36 -448 844 C-448.66 844 -449.32 844 -450 844 C-450 842.68 -450 841.36 -450 840 C-450.66 840 -451.32 840 -452 840 C-452 839.34 -452 838.68 -452 838 C-452.66 838 -453.32 838 -454 838 C-454 836.68 -454 835.36 -454 834 C-454.66 834 -455.32 834 -456 834 C-456 832.68 -456 831.36 -456 830 C-456.66 830 -457.32 830 -458 830 C-458 828.68 -458 827.36 -458 826 C-458.66 826 -459.32 826 -460 826 C-460 824.02 -460 822.04 -460 820 C-460.66 820 -461.32 820 -462 820 C-462 818.68 -462 817.36 -462 816 C-462.66 816 -463.32 816 -464 816 C-464 813.36 -464 810.72 -464 808 C-464.66 808 -465.32 808 -466 808 C-466 806.02 -466 804.04 -466 802 C-466.66 802 -467.32 802 -468 802 C-468 798.7 -468 795.4 -468 792 C-468.66 792 -469.32 792 -470 792 C-470 788.04 -470 784.08 -470 780 C-470.66 780 -471.32 780 -472 780 C-472 774.06 -472 768.12 -472 762 C-472.66 762 -473.32 762 -474 762 C-474 748.14 -474 734.28 -474 720 C-473.34 720 -472.68 720 -472 720 C-472 710.1 -472 700.2 -472 690 C-471.34 690 -470.68 690 -470 690 C-470 685.38 -470 680.76 -470 676 C-469.34 676 -468.68 676 -468 676 C-468 672.04 -468 668.08 -468 664 C-467.34 664 -466.68 664 -466 664 C-466 659.38 -466 654.76 -466 650 C-465.34 650 -464.68 650 -464 650 C-464 646.04 -464 642.08 -464 638 C-463.34 638 -462.68 638 -462 638 C-462 634.04 -462 630.08 -462 626 C-461.34 626 -460.68 626 -460 626 C-460 622.04 -460 618.08 -460 614 C-459.34 614 -458.68 614 -458 614 C-458 610.7 -458 607.4 -458 604 C-457.34 604 -456.68 604 -456 604 C-456 600.04 -456 596.08 -456 592 C-455.34 592 -454.68 592 -454 592 C-454 587.38 -454 582.76 -454 578 C-453.34 578 -452.68 578 -452 578 C-452 574.7 -452 571.4 -452 568 C-451.34 568 -450.68 568 -450 568 C-450 563.38 -450 558.76 -450 554 C-449.34 554 -448.68 554 -448 554 C-448 550.7 -448 547.4 -448 544 C-447.34 544 -446.68 544 -446 544 C-446 539.38 -446 534.76 -446 530 C-445.34 530 -444.68 530 -444 530 C-444 526.04 -444 522.08 -444 518 C-443.34 518 -442.68 518 -442 518 C-442 514.04 -442 510.08 -442 506 C-441.34 506 -440.68 506 -440 506 C-440 502.04 -440 498.08 -440 494 C-439.34 494 -438.68 494 -438 494 C-438 488.72 -438 483.44 -438 478 C-437.34 478 -436.68 478 -436 478 C-436 474.7 -436 471.4 -436 468 C-435.34 468 -434.68 468 -434 468 C-434 463.38 -434 458.76 -434 454 C-433.34 454 -432.68 454 -432 454 C-432 450.7 -432 447.4 -432 444 C-431.34 444 -430.68 444 -430 444 C-430 439.38 -430 434.76 -430 430 C-429.34 430 -428.68 430 -428 430 C-428 427.36 -428 424.72 -428 422 C-427.34 422 -426.68 422 -426 422 C-426 418.04 -426 414.08 -426 410 C-425.34 410 -424.68 410 -424 410 C-424 406.7 -424 403.4 -424 400 C-423.34 400 -422.68 400 -422 400 C-422 396.04 -422 392.08 -422 388 C-421.34 388 -420.68 388 -420 388 C-420 384.7 -420 381.4 -420 378 C-419.34 378 -418.68 378 -418 378 C-418 375.36 -418 372.72 -418 370 C-417.34 370 -416.68 370 -416 370 C-416 366.7 -416 363.4 -416 360 C-415.34 360 -414.68 360 -414 360 C-414 356.7 -414 353.4 -414 350 C-413.34 350 -412.68 350 -412 350 C-412 347.36 -412 344.72 -412 342 C-411.34 342 -410.68 342 -410 342 C-410 339.36 -410 336.72 -410 334 C-409.34 334 -408.68 334 -408 334 C-408 331.36 -408 328.72 -408 326 C-407.34 326 -406.68 326 -406 326 C-406 323.36 -406 320.72 -406 318 C-405.34 318 -404.68 318 -404 318 C-404 315.36 -404 312.72 -404 310 C-403.34 310 -402.68 310 -402 310 C-402 307.36 -402 304.72 -402 302 C-401.34 302 -400.68 302 -400 302 C-400 299.36 -400 296.72 -400 294 C-399.34 294 -398.68 294 -398 294 C-398 292.02 -398 290.04 -398 288 C-397.34 288 -396.68 288 -396 288 C-396 286.02 -396 284.04 -396 282 C-395.34 282 -394.68 282 -394 282 C-394 280.02 -394 278.04 -394 276 C-393.34 276 -392.68 276 -392 276 C-392 274.02 -392 272.04 -392 270 C-391.34 270 -390.68 270 -390 270 C-390 268.02 -390 266.04 -390 264 C-389.34 264 -388.68 264 -388 264 C-388 262.02 -388 260.04 -388 258 C-387.34 258 -386.68 258 -386 258 C-386 256.02 -386 254.04 -386 252 C-385.34 252 -384.68 252 -384 252 C-384 250.02 -384 248.04 -384 246 C-383.34 246 -382.68 246 -382 246 C-382 244.68 -382 243.36 -382 242 C-381.34 242 -380.68 242 -380 242 C-380 240.02 -380 238.04 -380 236 C-379.34 236 -378.68 236 -378 236 C-378 234.68 -378 233.36 -378 232 C-377.34 232 -376.68 232 -376 232 C-376 230.02 -376 228.04 -376 226 C-375.34 226 -374.68 226 -374 226 C-374 224.68 -374 223.36 -374 222 C-373.34 222 -372.68 222 -372 222 C-372 220.68 -372 219.36 -372 218 C-371.34 218 -370.68 218 -370 218 C-370 216.68 -370 215.36 -370 214 C-369.34 214 -368.68 214 -368 214 C-368 212.68 -368 211.36 -368 210 C-367.34 210 -366.68 210 -366 210 C-366 208.68 -366 207.36 -366 206 C-365.34 206 -364.68 206 -364 206 C-364 204.68 -364 203.36 -364 202 C-363.34 202 -362.68 202 -362 202 C-362 200.68 -362 199.36 -362 198 C-361.34 198 -360.68 198 -360 198 C-360 196.68 -360 195.36 -360 194 C-359.34 194 -358.68 194 -358 194 C-358 192.68 -358 191.36 -358 190 C-357.34 190 -356.68 190 -356 190 C-356 188.68 -356 187.36 -356 186 C-355.34 186 -354.68 186 -354 186 C-354 184.68 -354 183.36 -354 182 C-353.34 182 -352.68 182 -352 182 C-352 180.68 -352 179.36 -352 178 C-351.34 178 -350.68 178 -350 178 C-350 177.34 -350 176.68 -350 176 C-349.34 176 -348.68 176 -348 176 C-348 174.68 -348 173.36 -348 172 C-347.34 172 -346.68 172 -346 172 C-346 171.34 -346 170.68 -346 170 C-345.34 170 -344.68 170 -344 170 C-344 168.68 -344 167.36 -344 166 C-343.34 166 -342.68 166 -342 166 C-342 165.34 -342 164.68 -342 164 C-341.34 164 -340.68 164 -340 164 C-340 162.68 -340 161.36 -340 160 C-339.34 160 -338.68 160 -338 160 C-338 159.34 -338 158.68 -338 158 C-337.34 158 -336.68 158 -336 158 C-336 156.68 -336 155.36 -336 154 C-335.34 154 -334.68 154 -334 154 C-334 153.34 -334 152.68 -334 152 C-333.34 152 -332.68 152 -332 152 C-332 150.68 -332 149.36 -332 148 C-331.34 148 -330.68 148 -330 148 C-330 147.34 -330 146.68 -330 146 C-329.34 146 -328.68 146 -328 146 C-328 145.34 -328 144.68 -328 144 C-327.34 144 -326.68 144 -326 144 C-326 143.34 -326 142.68 -326 142 C-325.34 142 -324.68 142 -324 142 C-324 140.68 -324 139.36 -324 138 C-323.34 138 -322.68 138 -322 138 C-322 137.34 -322 136.68 -322 136 C-321.34 136 -320.68 136 -320 136 C-320 135.34 -320 134.68 -320 134 C-319.34 134 -318.68 134 -318 134 C-318 133.34 -318 132.68 -318 132 C-317.34 132 -316.68 132 -316 132 C-316 131.34 -316 130.68 -316 130 C-315.34 130 -314.68 130 -314 130 C-314 129.34 -314 128.68 -314 128 C-313.34 128 -312.68 128 -312 128 C-312 127.34 -312 126.68 -312 126 C-311.34 126 -310.68 126 -310 126 C-310 125.34 -310 124.68 -310 124 C-309.34 124 -308.68 124 -308 124 C-308 123.34 -308 122.68 -308 122 C-307.34 122 -306.68 122 -306 122 C-306 121.34 -306 120.68 -306 120 C-305.34 120 -304.68 120 -304 120 C-304 119.34 -304 118.68 -304 118 C-303.34 118 -302.68 118 -302 118 C-302 117.34 -302 116.68 -302 116 C-301.34 116 -300.68 116 -300 116 C-300 115.34 -300 114.68 -300 114 C-299.34 114 -298.68 114 -298 114 C-298 113.34 -298 112.68 -298 112 C-297.34 112 -296.68 112 -296 112 C-296 111.34 -296 110.68 -296 110 C-295.34 110 -294.68 110 -294 110 C-294 109.34 -294 108.68 -294 108 C-293.34 108 -292.68 108 -292 108 C-292 107.34 -292 106.68 -292 106 C-291.34 106 -290.68 106 -290 106 C-290 105.34 -290 104.68 -290 104 C-289.34 104 -288.68 104 -288 104 C-288 103.34 -288 102.68 -288 102 C-287.34 102 -286.68 102 -286 102 C-286 101.34 -286 100.68 -286 100 C-285.34 100 -284.68 100 -284 100 C-284 99.34 -284 98.68 -284 98 C-283.34 98 -282.68 98 -282 98 C-282 97.34 -282 96.68 -282 96 C-281.34 96 -280.68 96 -280 96 C-280 95.34 -280 94.68 -280 94 C-279.34 94 -278.68 94 -278 94 C-278 93.34 -278 92.68 -278 92 C-277.34 92 -276.68 92 -276 92 C-276 91.34 -276 90.68 -276 90 C-274.68 90 -273.36 90 -272 90 C-272 89.34 -272 88.68 -272 88 C-271.34 88 -270.68 88 -270 88 C-270 87.34 -270 86.68 -270 86 C-268.68 86 -267.36 86 -266 86 C-266 85.34 -266 84.68 -266 84 C-265.34 84 -264.68 84 -264 84 C-264 83.34 -264 82.68 -264 82 C-263.34 82 -262.68 82 -262 82 C-262 81.34 -262 80.68 -262 80 C-260.68 80 -259.36 80 -258 80 C-258 79.34 -258 78.68 -258 78 C-257.34 78 -256.68 78 -256 78 C-256 77.34 -256 76.68 -256 76 C-255.34 76 -254.68 76 -254 76 C-254 75.34 -254 74.68 -254 74 C-252.68 74 -251.36 74 -250 74 C-250 73.34 -250 72.68 -250 72 C-248.68 72 -247.36 72 -246 72 C-246 71.34 -246 70.68 -246 70 C-245.34 70 -244.68 70 -244 70 C-244 69.34 -244 68.68 -244 68 C-242.68 68 -241.36 68 -240 68 C-240 67.34 -240 66.68 -240 66 C-239.34 66 -238.68 66 -238 66 C-238 65.34 -238 64.68 -238 64 C-236.68 64 -235.36 64 -234 64 C-234 63.34 -234 62.68 -234 62 C-232.68 62 -231.36 62 -230 62 C-230 61.34 -230 60.68 -230 60 C-228.68 60 -227.36 60 -226 60 C-226 59.34 -226 58.68 -226 58 C-225.34 58 -224.68 58 -224 58 C-224 57.34 -224 56.68 -224 56 C-222.68 56 -221.36 56 -220 56 C-220 55.34 -220 54.68 -220 54 C-218.68 54 -217.36 54 -216 54 C-216 53.34 -216 52.68 -216 52 C-214.68 52 -213.36 52 -212 52 C-212 51.34 -212 50.68 -212 50 C-210.68 50 -209.36 50 -208 50 C-208 49.34 -208 48.68 -208 48 C-206.68 48 -205.36 48 -204 48 C-204 47.34 -204 46.68 -204 46 C-202.68 46 -201.36 46 -200 46 C-200 45.34 -200 44.68 -200 44 C-198.02 44 -196.04 44 -194 44 C-194 43.34 -194 42.68 -194 42 C-192.68 42 -191.36 42 -190 42 C-190 41.34 -190 40.68 -190 40 C-188.68 40 -187.36 40 -186 40 C-186 39.34 -186 38.68 -186 38 C-184.02 38 -182.04 38 -180 38 C-180 37.34 -180 36.68 -180 36 C-178.68 36 -177.36 36 -176 36 C-176 35.34 -176 34.68 -176 34 C-174.02 34 -172.04 34 -170 34 C-170 33.34 -170 32.68 -170 32 C-168.02 32 -166.04 32 -164 32 C-164 31.34 -164 30.68 -164 30 C-162.02 30 -160.04 30 -158 30 C-158 29.34 -158 28.68 -158 28 C-156.02 28 -154.04 28 -152 28 C-152 27.34 -152 26.68 -152 26 C-149.36 26 -146.72 26 -144 26 C-144 25.34 -144 24.68 -144 24 C-142.68 24 -141.36 24 -140 24 C-140 23.34 -140 22.68 -140 22 C-137.36 22 -134.72 22 -132 22 C-132 21.34 -132 20.68 -132 20 C-128.7 20 -125.4 20 -122 20 C-122 19.34 -122 18.68 -122 18 C-120.02 18 -118.04 18 -116 18 C-116 17.34 -116 16.68 -116 16 C-113.36 16 -110.72 16 -108 16 C-108 15.34 -108 14.68 -108 14 C-104.04 14 -100.08 14 -96 14 C-96 13.34 -96 12.68 -96 12 C-92.7 12 -89.4 12 -86 12 C-86 11.34 -86 10.68 -86 10 C-82.04 10 -78.08 10 -74 10 C-74 9.34 -74 8.68 -74 8 C-70.04 8 -66.08 8 -62 8 C-62 7.34 -62 6.68 -62 6 C-56.72 6 -51.44 6 -46 6 C-46 5.34 -46 4.68 -46 4 C-39.4 4 -32.8 4 -26 4 C-26 3.34 -26 2.68 -26 2 C-17.42 2 -8.84 2 0 2 C0 1.34 0 0.68 0 0 Z M-4 92 C-4 92.66 -4 93.32 -4 94 C-17.2 94 -30.4 94 -44 94 C-44 94.66 -44 95.32 -44 96 C-51.92 96 -59.84 96 -68 96 C-68 96.66 -68 97.32 -68 98 C-71.96 98 -75.92 98 -80 98 C-80 98.66 -80 99.32 -80 100 C-83.96 100 -87.92 100 -92 100 C-92 100.66 -92 101.32 -92 102 C-94.64 102 -97.28 102 -100 102 C-100 102.66 -100 103.32 -100 104 C-102.64 104 -105.28 104 -108 104 C-108 104.66 -108 105.32 -108 106 C-109.98 106 -111.96 106 -114 106 C-114 106.66 -114 107.32 -114 108 C-116.64 108 -119.28 108 -122 108 C-122 108.66 -122 109.32 -122 110 C-123.98 110 -125.96 110 -128 110 C-128 110.66 -128 111.32 -128 112 C-129.98 112 -131.96 112 -134 112 C-134 112.66 -134 113.32 -134 114 C-135.98 114 -137.96 114 -140 114 C-140 114.66 -140 115.32 -140 116 C-141.98 116 -143.96 116 -146 116 C-146 116.66 -146 117.32 -146 118 C-147.32 118 -148.64 118 -150 118 C-150 118.66 -150 119.32 -150 120 C-151.32 120 -152.64 120 -154 120 C-154 120.66 -154 121.32 -154 122 C-155.32 122 -156.64 122 -158 122 C-158 122.66 -158 123.32 -158 124 C-159.32 124 -160.64 124 -162 124 C-162 124.66 -162 125.32 -162 126 C-163.98 126 -165.96 126 -168 126 C-168 126.66 -168 127.32 -168 128 C-169.32 128 -170.64 128 -172 128 C-172 128.66 -172 129.32 -172 130 C-172.66 130 -173.32 130 -174 130 C-174 130.66 -174 131.32 -174 132 C-175.32 132 -176.64 132 -178 132 C-178 132.66 -178 133.32 -178 134 C-179.32 134 -180.64 134 -182 134 C-182 134.66 -182 135.32 -182 136 C-183.32 136 -184.64 136 -186 136 C-186 136.66 -186 137.32 -186 138 C-186.66 138 -187.32 138 -188 138 C-188 138.66 -188 139.32 -188 140 C-189.32 140 -190.64 140 -192 140 C-192 140.66 -192 141.32 -192 142 C-192.66 142 -193.32 142 -194 142 C-194 142.66 -194 143.32 -194 144 C-195.32 144 -196.64 144 -198 144 C-198 144.66 -198 145.32 -198 146 C-198.66 146 -199.32 146 -200 146 C-200 146.66 -200 147.32 -200 148 C-201.32 148 -202.64 148 -204 148 C-204 148.66 -204 149.32 -204 150 C-204.66 150 -205.32 150 -206 150 C-206 150.66 -206 151.32 -206 152 C-206.66 152 -207.32 152 -208 152 C-208 152.66 -208 153.32 -208 154 C-208.66 154 -209.32 154 -210 154 C-210 154.66 -210 155.32 -210 156 C-211.32 156 -212.64 156 -214 156 C-214 156.66 -214 157.32 -214 158 C-214.66 158 -215.32 158 -216 158 C-216 158.66 -216 159.32 -216 160 C-216.66 160 -217.32 160 -218 160 C-218 160.66 -218 161.32 -218 162 C-218.66 162 -219.32 162 -220 162 C-220 162.66 -220 163.32 -220 164 C-220.66 164 -221.32 164 -222 164 C-222 164.66 -222 165.32 -222 166 C-222.66 166 -223.32 166 -224 166 C-224 166.66 -224 167.32 -224 168 C-224.66 168 -225.32 168 -226 168 C-226 168.66 -226 169.32 -226 170 C-226.66 170 -227.32 170 -228 170 C-228 170.66 -228 171.32 -228 172 C-228.66 172 -229.32 172 -230 172 C-230 172.66 -230 173.32 -230 174 C-230.66 174 -231.32 174 -232 174 C-232 174.66 -232 175.32 -232 176 C-232.66 176 -233.32 176 -234 176 C-234 176.66 -234 177.32 -234 178 C-234.66 178 -235.32 178 -236 178 C-236 178.66 -236 179.32 -236 180 C-236.66 180 -237.32 180 -238 180 C-238 180.66 -238 181.32 -238 182 C-238.66 182 -239.32 182 -240 182 C-240 182.66 -240 183.32 -240 184 C-240.66 184 -241.32 184 -242 184 C-242 184.66 -242 185.32 -242 186 C-242.66 186 -243.32 186 -244 186 C-244 186.66 -244 187.32 -244 188 C-244.66 188 -245.32 188 -246 188 C-246 189.32 -246 190.64 -246 192 C-246.66 192 -247.32 192 -248 192 C-248 192.66 -248 193.32 -248 194 C-248.66 194 -249.32 194 -250 194 C-250 194.66 -250 195.32 -250 196 C-250.66 196 -251.32 196 -252 196 C-252 197.32 -252 198.64 -252 200 C-252.66 200 -253.32 200 -254 200 C-254 200.66 -254 201.32 -254 202 C-254.66 202 -255.32 202 -256 202 C-256 202.66 -256 203.32 -256 204 C-256.66 204 -257.32 204 -258 204 C-258 205.32 -258 206.64 -258 208 C-258.66 208 -259.32 208 -260 208 C-260 208.66 -260 209.32 -260 210 C-260.66 210 -261.32 210 -262 210 C-262 211.32 -262 212.64 -262 214 C-262.66 214 -263.32 214 -264 214 C-264 214.66 -264 215.32 -264 216 C-264.66 216 -265.32 216 -266 216 C-266 217.32 -266 218.64 -266 220 C-266.66 220 -267.32 220 -268 220 C-268 221.32 -268 222.64 -268 224 C-268.66 224 -269.32 224 -270 224 C-270 224.66 -270 225.32 -270 226 C-270.66 226 -271.32 226 -272 226 C-272 227.32 -272 228.64 -272 230 C-272.66 230 -273.32 230 -274 230 C-274 231.32 -274 232.64 -274 234 C-274.66 234 -275.32 234 -276 234 C-276 235.32 -276 236.64 -276 238 C-276.66 238 -277.32 238 -278 238 C-278 239.32 -278 240.64 -278 242 C-278.66 242 -279.32 242 -280 242 C-280 243.32 -280 244.64 -280 246 C-280.66 246 -281.32 246 -282 246 C-282 247.32 -282 248.64 -282 250 C-282.66 250 -283.32 250 -284 250 C-284 251.32 -284 252.64 -284 254 C-284.66 254 -285.32 254 -286 254 C-286 255.32 -286 256.64 -286 258 C-286.66 258 -287.32 258 -288 258 C-288 259.32 -288 260.64 -288 262 C-288.66 262 -289.32 262 -290 262 C-290 263.98 -290 265.96 -290 268 C-290.66 268 -291.32 268 -292 268 C-292 269.98 -292 271.96 -292 274 C-292.66 274 -293.32 274 -294 274 C-294 275.32 -294 276.64 -294 278 C-294.66 278 -295.32 278 -296 278 C-296 279.98 -296 281.96 -296 284 C-296.66 284 -297.32 284 -298 284 C-298 285.98 -298 287.96 -298 290 C-298.66 290 -299.32 290 -300 290 C-300 291.98 -300 293.96 -300 296 C-300.66 296 -301.32 296 -302 296 C-302 297.98 -302 299.96 -302 302 C-302.66 302 -303.32 302 -304 302 C-304 303.32 -304 304.64 -304 306 C-304.66 306 -305.32 306 -306 306 C-306 308.64 -306 311.28 -306 314 C-306.66 314 -307.32 314 -308 314 C-308 316.64 -308 319.28 -308 322 C-308.66 322 -309.32 322 -310 322 C-310 323.98 -310 325.96 -310 328 C-310.66 328 -311.32 328 -312 328 C-312 329.98 -312 331.96 -312 334 C-312.66 334 -313.32 334 -314 334 C-314 337.3 -314 340.6 -314 344 C-314.66 344 -315.32 344 -316 344 C-316 345.98 -316 347.96 -316 350 C-316.66 350 -317.32 350 -318 350 C-318 352.64 -318 355.28 -318 358 C-318.66 358 -319.32 358 -320 358 C-320 360.64 -320 363.28 -320 366 C-320.66 366 -321.32 366 -322 366 C-322 368.64 -322 371.28 -322 374 C-322.66 374 -323.32 374 -324 374 C-324 376.64 -324 379.28 -324 382 C-324.66 382 -325.32 382 -326 382 C-326 384.64 -326 387.28 -326 390 C-326.66 390 -327.32 390 -328 390 C-328 392.64 -328 395.28 -328 398 C-328.66 398 -329.32 398 -330 398 C-330 400.64 -330 403.28 -330 406 C-330.66 406 -331.32 406 -332 406 C-332 408.64 -332 411.28 -332 414 C-332.66 414 -333.32 414 -334 414 C-334 417.3 -334 420.6 -334 424 C-334.66 424 -335.32 424 -336 424 C-336 425.98 -336 427.96 -336 430 C-336.66 430 -337.32 430 -338 430 C-338 433.96 -338 437.92 -338 442 C-338.66 442 -339.32 442 -340 442 C-340 444.64 -340 447.28 -340 450 C-340.66 450 -341.32 450 -342 450 C-342 453.3 -342 456.6 -342 460 C-342.66 460 -343.32 460 -344 460 C-344 463.3 -344 466.6 -344 470 C-344.66 470 -345.32 470 -346 470 C-346 472.64 -346 475.28 -346 478 C-346.66 478 -347.32 478 -348 478 C-348 480.64 -348 483.28 -348 486 C-348.66 486 -349.32 486 -350 486 C-350 489.96 -350 493.92 -350 498 C-350.66 498 -351.32 498 -352 498 C-352 501.3 -352 504.6 -352 508 C-352.66 508 -353.32 508 -354 508 C-354 511.3 -354 514.6 -354 518 C-354.66 518 -355.32 518 -356 518 C-356 520.64 -356 523.28 -356 526 C-356.66 526 -357.32 526 -358 526 C-358 529.96 -358 533.92 -358 538 C-358.66 538 -359.32 538 -360 538 C-360 540.64 -360 543.28 -360 546 C-360.66 546 -361.32 546 -362 546 C-362 550.62 -362 555.24 -362 560 C-362.66 560 -363.32 560 -364 560 C-364 563.3 -364 566.6 -364 570 C-364.66 570 -365.32 570 -366 570 C-366 573.3 -366 576.6 -366 580 C-366.66 580 -367.32 580 -368 580 C-368 583.3 -368 586.6 -368 590 C-368.66 590 -369.32 590 -370 590 C-370 594.62 -370 599.24 -370 604 C-370.66 604 -371.32 604 -372 604 C-372 608.62 -372 613.24 -372 618 C-372.66 618 -373.32 618 -374 618 C-374 619.98 -374 621.96 -374 624 C-374.66 624 -375.32 624 -376 624 C-376 629.94 -376 635.88 -376 642 C-376.66 642 -377.32 642 -378 642 C-378 646.62 -378 651.24 -378 656 C-378.66 656 -379.32 656 -380 656 C-380 661.94 -380 667.88 -380 674 C-380.66 674 -381.32 674 -382 674 C-382 680.6 -382 687.2 -382 694 C-382.66 694 -383.32 694 -384 694 C-384 709.84 -384 725.68 -384 742 C-383.34 742 -382.68 742 -382 742 C-382 744.64 -382 747.28 -382 750 C-381.34 750 -380.68 750 -380 750 C-380 753.3 -380 756.6 -380 760 C-379.34 760 -378.68 760 -378 760 C-378 762.64 -378 765.28 -378 768 C-377.34 768 -376.68 768 -376 768 C-376 769.98 -376 771.96 -376 774 C-375.34 774 -374.68 774 -374 774 C-374 775.32 -374 776.64 -374 778 C-373.34 778 -372.68 778 -372 778 C-372 779.32 -372 780.64 -372 782 C-371.34 782 -370.68 782 -370 782 C-370 783.98 -370 785.96 -370 788 C-369.34 788 -368.68 788 -368 788 C-368 789.32 -368 790.64 -368 792 C-367.34 792 -366.68 792 -366 792 C-366 792.66 -366 793.32 -366 794 C-365.34 794 -364.68 794 -364 794 C-364 795.32 -364 796.64 -364 798 C-363.34 798 -362.68 798 -362 798 C-362 798.66 -362 799.32 -362 800 C-361.34 800 -360.68 800 -360 800 C-360 800.66 -360 801.32 -360 802 C-359.34 802 -358.68 802 -358 802 C-358 802.66 -358 803.32 -358 804 C-357.34 804 -356.68 804 -356 804 C-356 804.66 -356 805.32 -356 806 C-355.34 806 -354.68 806 -354 806 C-354 806.66 -354 807.32 -354 808 C-353.34 808 -352.68 808 -352 808 C-352 808.66 -352 809.32 -352 810 C-351.34 810 -350.68 810 -350 810 C-350 810.66 -350 811.32 -350 812 C-349.34 812 -348.68 812 -348 812 C-348 812.66 -348 813.32 -348 814 C-347.34 814 -346.68 814 -346 814 C-346 814.66 -346 815.32 -346 816 C-345.34 816 -344.68 816 -344 816 C-344 816.66 -344 817.32 -344 818 C-343.34 818 -342.68 818 -342 818 C-342 818.66 -342 819.32 -342 820 C-341.34 820 -340.68 820 -340 820 C-340 820.66 -340 821.32 -340 822 C-339.34 822 -338.68 822 -338 822 C-338 822.66 -338 823.32 -338 824 C-337.34 824 -336.68 824 -336 824 C-336 824.66 -336 825.32 -336 826 C-334.68 826 -333.36 826 -332 826 C-332 826.66 -332 827.32 -332 828 C-331.34 828 -330.68 828 -330 828 C-330 828.66 -330 829.32 -330 830 C-328.68 830 -327.36 830 -326 830 C-326 830.66 -326 831.32 -326 832 C-324.68 832 -323.36 832 -322 832 C-322 832.66 -322 833.32 -322 834 C-320.68 834 -319.36 834 -318 834 C-318 834.66 -318 835.32 -318 836 C-316.68 836 -315.36 836 -314 836 C-314 836.66 -314 837.32 -314 838 C-312.68 838 -311.36 838 -310 838 C-310 838.66 -310 839.32 -310 840 C-308.02 840 -306.04 840 -304 840 C-304 840.66 -304 841.32 -304 842 C-302.02 842 -300.04 842 -298 842 C-298 842.66 -298 843.32 -298 844 C-296.02 844 -294.04 844 -292 844 C-292 844.66 -292 845.32 -292 846 C-290.02 846 -288.04 846 -286 846 C-286 846.66 -286 847.32 -286 848 C-283.36 848 -280.72 848 -278 848 C-278 848.66 -278 849.32 -278 850 C-274.7 850 -271.4 850 -268 850 C-268 850.66 -268 851.32 -268 852 C-262.72 852 -257.44 852 -252 852 C-252 852.66 -252 853.32 -252 854 C-233.52 854 -215.04 854 -196 854 C-196 853.34 -196 852.68 -196 852 C-192.04 852 -188.08 852 -184 852 C-184 851.34 -184 850.68 -184 850 C-181.36 850 -178.72 850 -176 850 C-176 849.34 -176 848.68 -176 848 C-173.36 848 -170.72 848 -168 848 C-168 847.34 -168 846.68 -168 846 C-165.36 846 -162.72 846 -160 846 C-160 845.34 -160 844.68 -160 844 C-158.68 844 -157.36 844 -156 844 C-156 843.34 -156 842.68 -156 842 C-154.02 842 -152.04 842 -150 842 C-150 841.34 -150 840.68 -150 840 C-148.68 840 -147.36 840 -146 840 C-146 839.34 -146 838.68 -146 838 C-144.02 838 -142.04 838 -140 838 C-140 837.34 -140 836.68 -140 836 C-138.68 836 -137.36 836 -136 836 C-136 835.34 -136 834.68 -136 834 C-134.68 834 -133.36 834 -132 834 C-132 833.34 -132 832.68 -132 832 C-130.68 832 -129.36 832 -128 832 C-128 831.34 -128 830.68 -128 830 C-126.68 830 -125.36 830 -124 830 C-124 829.34 -124 828.68 -124 828 C-122.68 828 -121.36 828 -120 828 C-120 827.34 -120 826.68 -120 826 C-118.68 826 -117.36 826 -116 826 C-116 825.34 -116 824.68 -116 824 C-115.34 824 -114.68 824 -114 824 C-114 823.34 -114 822.68 -114 822 C-112.68 822 -111.36 822 -110 822 C-110 821.34 -110 820.68 -110 820 C-109.34 820 -108.68 820 -108 820 C-108 819.34 -108 818.68 -108 818 C-106.68 818 -105.36 818 -104 818 C-104 817.34 -104 816.68 -104 816 C-103.34 816 -102.68 816 -102 816 C-102 815.34 -102 814.68 -102 814 C-100.68 814 -99.36 814 -98 814 C-98 813.34 -98 812.68 -98 812 C-97.34 812 -96.68 812 -96 812 C-96 811.34 -96 810.68 -96 810 C-95.34 810 -94.68 810 -94 810 C-94 809.34 -94 808.68 -94 808 C-92.68 808 -91.36 808 -90 808 C-90 807.34 -90 806.68 -90 806 C-89.34 806 -88.68 806 -88 806 C-88 805.34 -88 804.68 -88 804 C-86.68 804 -85.36 804 -84 804 C-84 803.34 -84 802.68 -84 802 C-83.34 802 -82.68 802 -82 802 C-82 801.34 -82 800.68 -82 800 C-81.34 800 -80.68 800 -80 800 C-80 799.34 -80 798.68 -80 798 C-79.34 798 -78.68 798 -78 798 C-78 797.34 -78 796.68 -78 796 C-77.34 796 -76.68 796 -76 796 C-76 795.34 -76 794.68 -76 794 C-75.34 794 -74.68 794 -74 794 C-74 793.34 -74 792.68 -74 792 C-72.68 792 -71.36 792 -70 792 C-70 791.34 -70 790.68 -70 790 C-69.34 790 -68.68 790 -68 790 C-68 789.34 -68 788.68 -68 788 C-67.34 788 -66.68 788 -66 788 C-66 787.34 -66 786.68 -66 786 C-65.34 786 -64.68 786 -64 786 C-64 785.34 -64 784.68 -64 784 C-63.34 784 -62.68 784 -62 784 C-62 783.34 -62 782.68 -62 782 C-61.34 782 -60.68 782 -60 782 C-60 781.34 -60 780.68 -60 780 C-59.34 780 -58.68 780 -58 780 C-58 779.34 -58 778.68 -58 778 C-57.34 778 -56.68 778 -56 778 C-56 777.34 -56 776.68 -56 776 C-55.34 776 -54.68 776 -54 776 C-54 775.34 -54 774.68 -54 774 C-53.34 774 -52.68 774 -52 774 C-52 773.34 -52 772.68 -52 772 C-51.34 772 -50.68 772 -50 772 C-50 771.34 -50 770.68 -50 770 C-49.34 770 -48.68 770 -48 770 C-48 769.34 -48 768.68 -48 768 C-47.34 768 -46.68 768 -46 768 C-46 767.34 -46 766.68 -46 766 C-45.34 766 -44.68 766 -44 766 C-44 765.34 -44 764.68 -44 764 C-43.34 764 -42.68 764 -42 764 C-42 763.34 -42 762.68 -42 762 C-41.34 762 -40.68 762 -40 762 C-40 761.34 -40 760.68 -40 760 C-39.34 760 -38.68 760 -38 760 C-38 759.34 -38 758.68 -38 758 C-37.34 758 -36.68 758 -36 758 C-36 757.34 -36 756.68 -36 756 C-35.34 756 -34.68 756 -34 756 C-34 755.34 -34 754.68 -34 754 C-33.34 754 -32.68 754 -32 754 C-32 752.68 -32 751.36 -32 750 C-31.34 750 -30.68 750 -30 750 C-30 749.34 -30 748.68 -30 748 C-29.34 748 -28.68 748 -28 748 C-28 747.34 -28 746.68 -28 746 C-27.34 746 -26.68 746 -26 746 C-26 745.34 -26 744.68 -26 744 C-25.34 744 -24.68 744 -24 744 C-24 743.34 -24 742.68 -24 742 C-23.34 742 -22.68 742 -22 742 C-22 741.34 -22 740.68 -22 740 C-21.34 740 -20.68 740 -20 740 C-20 739.34 -20 738.68 -20 738 C-19.34 738 -18.68 738 -18 738 C-18 737.34 -18 736.68 -18 736 C-17.34 736 -16.68 736 -16 736 C-16 734.68 -16 733.36 -16 732 C-15.34 732 -14.68 732 -14 732 C-14 731.34 -14 730.68 -14 730 C-13.34 730 -12.68 730 -12 730 C-12 729.34 -12 728.68 -12 728 C-11.34 728 -10.68 728 -10 728 C-10 727.34 -10 726.68 -10 726 C-9.34 726 -8.68 726 -8 726 C-8 724.68 -8 723.36 -8 722 C-7.34 722 -6.68 722 -6 722 C-6 721.34 -6 720.68 -6 720 C-5.34 720 -4.68 720 -4 720 C-4 719.34 -4 718.68 -4 718 C-3.34 718 -2.68 718 -2 718 C-2 717.34 -2 716.68 -2 716 C-1.34 716 -0.68 716 0 716 C0 714.68 0 713.36 0 712 C0.66 712 1.32 712 2 712 C2 711.34 2 710.68 2 710 C2.66 710 3.32 710 4 710 C4 709.34 4 708.68 4 708 C4.66 708 5.32 708 6 708 C6 707.34 6 706.68 6 706 C6.66 706 7.32 706 8 706 C8 704.68 8 703.36 8 702 C8.66 702 9.32 702 10 702 C10 701.34 10 700.68 10 700 C10.66 700 11.32 700 12 700 C12 699.34 12 698.68 12 698 C12.66 698 13.32 698 14 698 C14 697.34 14 696.68 14 696 C14.66 696 15.32 696 16 696 C16 694.68 16 693.36 16 692 C16.66 692 17.32 692 18 692 C18 691.34 18 690.68 18 690 C18.66 690 19.32 690 20 690 C20 689.34 20 688.68 20 688 C20.66 688 21.32 688 22 688 C22 686.68 22 685.36 22 684 C22.66 684 23.32 684 24 684 C24 683.34 24 682.68 24 682 C24.66 682 25.32 682 26 682 C26 680.68 26 679.36 26 678 C26.66 678 27.32 678 28 678 C28 677.34 28 676.68 28 676 C28.66 676 29.32 676 30 676 C30 675.34 30 674.68 30 674 C30.66 674 31.32 674 32 674 C32 672.68 32 671.36 32 670 C32.66 670 33.32 670 34 670 C34 669.34 34 668.68 34 668 C34.66 668 35.32 668 36 668 C36 667.34 36 666.68 36 666 C36.66 666 37.32 666 38 666 C38 665.34 38 664.68 38 664 C38.66 664 39.32 664 40 664 C40 663.34 40 662.68 40 662 C40.66 662 41.32 662 42 662 C42 660.68 42 659.36 42 658 C42.66 658 43.32 658 44 658 C44 657.34 44 656.68 44 656 C44.66 656 45.32 656 46 656 C46 655.34 46 654.68 46 654 C46.66 654 47.32 654 48 654 C48 652.68 48 651.36 48 650 C48.66 650 49.32 650 50 650 C50 649.34 50 648.68 50 648 C50.66 648 51.32 648 52 648 C52 646.68 52 645.36 52 644 C52.66 644 53.32 644 54 644 C54 643.34 54 642.68 54 642 C54.66 642 55.32 642 56 642 C56 641.34 56 640.68 56 640 C56.66 640 57.32 640 58 640 C58 639.34 58 638.68 58 638 C58.66 638 59.32 638 60 638 C60 636.68 60 635.36 60 634 C60.66 634 61.32 634 62 634 C62 633.34 62 632.68 62 632 C62.66 632 63.32 632 64 632 C64 631.34 64 630.68 64 630 C64.66 630 65.32 630 66 630 C66 628.68 66 627.36 66 626 C66.66 626 67.32 626 68 626 C68 625.34 68 624.68 68 624 C68.66 624 69.32 624 70 624 C70 623.34 70 622.68 70 622 C70.66 622 71.32 622 72 622 C72 620.68 72 619.36 72 618 C72.66 618 73.32 618 74 618 C74 617.34 74 616.68 74 616 C74.66 616 75.32 616 76 616 C76 615.34 76 614.68 76 614 C76.66 614 77.32 614 78 614 C78 613.34 78 612.68 78 612 C78.66 612 79.32 612 80 612 C80 610.68 80 609.36 80 608 C80.66 608 81.32 608 82 608 C82 607.34 82 606.68 82 606 C82.66 606 83.32 606 84 606 C84 605.34 84 604.68 84 604 C84.66 604 85.32 604 86 604 C86 603.34 86 602.68 86 602 C86.66 602 87.32 602 88 602 C88 600.68 88 599.36 88 598 C88.66 598 89.32 598 90 598 C90 597.34 90 596.68 90 596 C90.66 596 91.32 596 92 596 C92 595.34 92 594.68 92 594 C92.66 594 93.32 594 94 594 C94 593.34 94 592.68 94 592 C94.66 592 95.32 592 96 592 C96 591.34 96 590.68 96 590 C96.66 590 97.32 590 98 590 C98 589.34 98 588.68 98 588 C98.66 588 99.32 588 100 588 C100 587.34 100 586.68 100 586 C100.66 586 101.32 586 102 586 C102 585.34 102 584.68 102 584 C102.66 584 103.32 584 104 584 C104 582.68 104 581.36 104 580 C104.66 580 105.32 580 106 580 C106 579.34 106 578.68 106 578 C106.66 578 107.32 578 108 578 C108 577.34 108 576.68 108 576 C108.66 576 109.32 576 110 576 C110 575.34 110 574.68 110 574 C110.66 574 111.32 574 112 574 C112 572.68 112 571.36 112 570 C112.66 570 113.32 570 114 570 C114 569.34 114 568.68 114 568 C114.66 568 115.32 568 116 568 C116 567.34 116 566.68 116 566 C116.66 566 117.32 566 118 566 C118 565.34 118 564.68 118 564 C118.66 564 119.32 564 120 564 C120 563.34 120 562.68 120 562 C120.66 562 121.32 562 122 562 C122 561.34 122 560.68 122 560 C122.66 560 123.32 560 124 560 C124 559.34 124 558.68 124 558 C124.66 558 125.32 558 126 558 C126 557.34 126 556.68 126 556 C126.66 556 127.32 556 128 556 C128 554.68 128 553.36 128 552 C128.66 552 129.32 552 130 552 C130 551.34 130 550.68 130 550 C130.66 550 131.32 550 132 550 C132 549.34 132 548.68 132 548 C132.66 548 133.32 548 134 548 C134 547.34 134 546.68 134 546 C134.66 546 135.32 546 136 546 C136 545.34 136 544.68 136 544 C136.66 544 137.32 544 138 544 C138 543.34 138 542.68 138 542 C138.66 542 139.32 542 140 542 C140 541.34 140 540.68 140 540 C140.66 540 141.32 540 142 540 C142 539.34 142 538.68 142 538 C142.66 538 143.32 538 144 538 C144 537.34 144 536.68 144 536 C144.66 536 145.32 536 146 536 C146 535.34 146 534.68 146 534 C146.66 534 147.32 534 148 534 C148 532.68 148 531.36 148 530 C148.66 530 149.32 530 150 530 C150 529.34 150 528.68 150 528 C150.66 528 151.32 528 152 528 C152 527.34 152 526.68 152 526 C152.66 526 153.32 526 154 526 C154 525.34 154 524.68 154 524 C154.66 524 155.32 524 156 524 C156 523.34 156 522.68 156 522 C156.66 522 157.32 522 158 522 C158 521.34 158 520.68 158 520 C158.66 520 159.32 520 160 520 C160 519.34 160 518.68 160 518 C160.66 518 161.32 518 162 518 C162 517.34 162 516.68 162 516 C162.66 516 163.32 516 164 516 C164 514.68 164 513.36 164 512 C164.66 512 165.32 512 166 512 C166 511.34 166 510.68 166 510 C166.66 510 167.32 510 168 510 C168 509.34 168 508.68 168 508 C168.66 508 169.32 508 170 508 C170 507.34 170 506.68 170 506 C170.66 506 171.32 506 172 506 C172 504.68 172 503.36 172 502 C172.66 502 173.32 502 174 502 C174 501.34 174 500.68 174 500 C174.66 500 175.32 500 176 500 C176 499.34 176 498.68 176 498 C176.66 498 177.32 498 178 498 C178 497.34 178 496.68 178 496 C178.66 496 179.32 496 180 496 C180 495.34 180 494.68 180 494 C180.66 494 181.32 494 182 494 C182 493.34 182 492.68 182 492 C182.66 492 183.32 492 184 492 C184 491.34 184 490.68 184 490 C184.66 490 185.32 490 186 490 C186 489.34 186 488.68 186 488 C186.66 488 187.32 488 188 488 C188 486.68 188 485.36 188 484 C188.66 484 189.32 484 190 484 C190 483.34 190 482.68 190 482 C190.66 482 191.32 482 192 482 C192 481.34 192 480.68 192 480 C192.66 480 193.32 480 194 480 C194 479.34 194 478.68 194 478 C194.66 478 195.32 478 196 478 C196 476.68 196 475.36 196 474 C196.66 474 197.32 474 198 474 C198 473.34 198 472.68 198 472 C198.66 472 199.32 472 200 472 C200 471.34 200 470.68 200 470 C200.66 470 201.32 470 202 470 C202 469.34 202 468.68 202 468 C202.66 468 203.32 468 204 468 C204 467.34 204 466.68 204 466 C204.66 466 205.32 466 206 466 C206 465.34 206 464.68 206 464 C206.66 464 207.32 464 208 464 C208 462.68 208 461.36 208 460 C208.66 460 209.32 460 210 460 C210 459.34 210 458.68 210 458 C210.66 458 211.32 458 212 458 C212 457.34 212 456.68 212 456 C212.66 456 213.32 456 214 456 C214 455.34 214 454.68 214 454 C214.66 454 215.32 454 216 454 C216 452.68 216 451.36 216 450 C216.66 450 217.32 450 218 450 C218 449.34 218 448.68 218 448 C218.66 448 219.32 448 220 448 C220 447.34 220 446.68 220 446 C220.66 446 221.32 446 222 446 C222 445.34 222 444.68 222 444 C222.66 444 223.32 444 224 444 C224 442.68 224 441.36 224 440 C224.66 440 225.32 440 226 440 C226 439.34 226 438.68 226 438 C226.66 438 227.32 438 228 438 C228 437.34 228 436.68 228 436 C228.66 436 229.32 436 230 436 C230 435.34 230 434.68 230 434 C230.66 434 231.32 434 232 434 C232 432.68 232 431.36 232 430 C232.66 430 233.32 430 234 430 C234 429.34 234 428.68 234 428 C234.66 428 235.32 428 236 428 C236 427.34 236 426.68 236 426 C236.66 426 237.32 426 238 426 C238 424.68 238 423.36 238 422 C238.66 422 239.32 422 240 422 C240 421.34 240 420.68 240 420 C240.66 420 241.32 420 242 420 C242 419.34 242 418.68 242 418 C242.66 418 243.32 418 244 418 C244 417.34 244 416.68 244 416 C244.66 416 245.32 416 246 416 C246 415.34 246 414.68 246 414 C246.66 414 247.32 414 248 414 C248 412.68 248 411.36 248 410 C248.66 410 249.32 410 250 410 C250 409.34 250 408.68 250 408 C250.66 408 251.32 408 252 408 C252 407.34 252 406.68 252 406 C252.66 406 253.32 406 254 406 C254 405.34 254 404.68 254 404 C254.66 404 255.32 404 256 404 C256 402.68 256 401.36 256 400 C256.66 400 257.32 400 258 400 C258 399.34 258 398.68 258 398 C258.66 398 259.32 398 260 398 C260 396.68 260 395.36 260 394 C260.66 394 261.32 394 262 394 C262 393.34 262 392.68 262 392 C262.66 392 263.32 392 264 392 C264 391.34 264 390.68 264 390 C264.66 390 265.32 390 266 390 C266 389.34 266 388.68 266 388 C266.66 388 267.32 388 268 388 C268 386.68 268 385.36 268 384 C268.66 384 269.32 384 270 384 C270 383.34 270 382.68 270 382 C270.66 382 271.32 382 272 382 C272 380.68 272 379.36 272 378 C272.66 378 273.32 378 274 378 C274 377.34 274 376.68 274 376 C274.66 376 275.32 376 276 376 C276 375.34 276 374.68 276 374 C276.66 374 277.32 374 278 374 C278 372.68 278 371.36 278 370 C278.66 370 279.32 370 280 370 C280 369.34 280 368.68 280 368 C280.66 368 281.32 368 282 368 C282 367.34 282 366.68 282 366 C282.66 366 283.32 366 284 366 C284 364.68 284 363.36 284 362 C284.66 362 285.32 362 286 362 C286 361.34 286 360.68 286 360 C286.66 360 287.32 360 288 360 C288 359.34 288 358.68 288 358 C288.66 358 289.32 358 290 358 C290 356.68 290 355.36 290 354 C290.66 354 291.32 354 292 354 C292 352.68 292 351.36 292 350 C292.66 350 293.32 350 294 350 C294 349.34 294 348.68 294 348 C294.66 348 295.32 348 296 348 C296 347.34 296 346.68 296 346 C296.66 346 297.32 346 298 346 C298 344.68 298 343.36 298 342 C298.66 342 299.32 342 300 342 C300 341.34 300 340.68 300 340 C300.66 340 301.32 340 302 340 C302 338.68 302 337.36 302 336 C302.66 336 303.32 336 304 336 C304 335.34 304 334.68 304 334 C304.66 334 305.32 334 306 334 C306 332.68 306 331.36 306 330 C306.66 330 307.32 330 308 330 C308 329.34 308 328.68 308 328 C308.66 328 309.32 328 310 328 C310 326.68 310 325.36 310 324 C310.66 324 311.32 324 312 324 C312 323.34 312 322.68 312 322 C312.66 322 313.32 322 314 322 C314 320.68 314 319.36 314 318 C314.66 318 315.32 318 316 318 C316 317.34 316 316.68 316 316 C316.66 316 317.32 316 318 316 C318 314.68 318 313.36 318 312 C318.66 312 319.32 312 320 312 C320 311.34 320 310.68 320 310 C320.66 310 321.32 310 322 310 C322 308.68 322 307.36 322 306 C322.66 306 323.32 306 324 306 C324 304.68 324 303.36 324 302 C324.66 302 325.32 302 326 302 C326 301.34 326 300.68 326 300 C326.66 300 327.32 300 328 300 C328 298.68 328 297.36 328 296 C328.66 296 329.32 296 330 296 C330 294.68 330 293.36 330 292 C330.66 292 331.32 292 332 292 C332 291.34 332 290.68 332 290 C332.66 290 333.32 290 334 290 C334 288.68 334 287.36 334 286 C334.66 286 335.32 286 336 286 C336 284.68 336 283.36 336 282 C336.66 282 337.32 282 338 282 C338 280.68 338 279.36 338 278 C338.66 278 339.32 278 340 278 C340 276.68 340 275.36 340 274 C340.66 274 341.32 274 342 274 C342 273.34 342 272.68 342 272 C342.66 272 343.32 272 344 272 C344 270.68 344 269.36 344 268 C344.66 268 345.32 268 346 268 C346 266.68 346 265.36 346 264 C346.66 264 347.32 264 348 264 C348 262.68 348 261.36 348 260 C348.66 260 349.32 260 350 260 C350 258.68 350 257.36 350 256 C350.66 256 351.32 256 352 256 C352 254.68 352 253.36 352 252 C352.66 252 353.32 252 354 252 C354 250.68 354 249.36 354 248 C354.66 248 355.32 248 356 248 C356 246.68 356 245.36 356 244 C356.66 244 357.32 244 358 244 C358 242.02 358 240.04 358 238 C358.66 238 359.32 238 360 238 C360 236.68 360 235.36 360 234 C360.66 234 361.32 234 362 234 C362 232.68 362 231.36 362 230 C362.66 230 363.32 230 364 230 C364 228.02 364 226.04 364 224 C364.66 224 365.32 224 366 224 C366 222.02 366 220.04 366 218 C366.66 218 367.32 218 368 218 C368 215.36 368 212.72 368 210 C368.66 210 369.32 210 370 210 C370 207.36 370 204.72 370 202 C370.66 202 371.32 202 372 202 C372 200.02 372 198.04 372 196 C372.66 196 373.32 196 374 196 C374 192.7 374 189.4 374 186 C374.66 186 375.32 186 376 186 C376 177.42 376 168.84 376 160 C375.34 160 374.68 160 374 160 C374 157.36 374 154.72 374 152 C373.34 152 372.68 152 372 152 C372 150.02 372 148.04 372 146 C371.34 146 370.68 146 370 146 C370 144.68 370 143.36 370 142 C369.34 142 368.68 142 368 142 C368 140.68 368 139.36 368 138 C367.34 138 366.68 138 366 138 C366 137.34 366 136.68 366 136 C365.34 136 364.68 136 364 136 C364 134.68 364 133.36 364 132 C363.34 132 362.68 132 362 132 C362 131.34 362 130.68 362 130 C361.34 130 360.68 130 360 130 C360 129.34 360 128.68 360 128 C359.34 128 358.68 128 358 128 C358 127.34 358 126.68 358 126 C357.34 126 356.68 126 356 126 C356 125.34 356 124.68 356 124 C355.34 124 354.68 124 354 124 C354 123.34 354 122.68 354 122 C353.34 122 352.68 122 352 122 C352 121.34 352 120.68 352 120 C351.34 120 350.68 120 350 120 C350 119.34 350 118.68 350 118 C349.34 118 348.68 118 348 118 C348 117.34 348 116.68 348 116 C347.34 116 346.68 116 346 116 C346 115.34 346 114.68 346 114 C344.68 114 343.36 114 342 114 C342 113.34 342 112.68 342 112 C341.34 112 340.68 112 340 112 C340 111.34 340 110.68 340 110 C338.68 110 337.36 110 336 110 C336 109.34 336 108.68 336 108 C334.68 108 333.36 108 332 108 C332 107.34 332 106.68 332 106 C330.02 106 328.04 106 326 106 C326 105.34 326 104.68 326 104 C324.68 104 323.36 104 322 104 C322 103.34 322 102.68 322 102 C320.02 102 318.04 102 316 102 C316 101.34 316 100.68 316 100 C313.36 100 310.72 100 308 100 C308 99.34 308 98.68 308 98 C304.7 98 301.4 98 298 98 C298 97.34 298 96.68 298 96 C294.04 96 290.08 96 286 96 C286 95.34 286 94.68 286 94 C278.74 94 271.48 94 264 94 C264 93.34 264 92.68 264 92 C175.56 92 87.12 92 -4 92 Z " fill="#44AAC6" transform="translate(474,0)"/>

<!-- plus + direction controllers -->
<path d="M0 0 C26.4 0 52.8 0 80 0 C80 33.66 80 67.32 80 102 C114.32 102 148.64 102 184 102 C184 129.06 184 156.12 184 184 C149.68 184 115.36 184 80 184 C80 218.32 80 252.64 80 288 C53.6 288 27.2 288 0 288 C0 253.68 0 219.36 0 184 C-34.32 184 -68.64 184 -104 184 C-104 157.6 -104 131.2 -104 104 C-69.68 104 -35.36 104 0 104 C0 69.68 0 35.36 0 0 Z " fill="#6BBFD7" transform="translate(380,270)"/>

<!-- circle buttons -->
<path d="M0 0 C0.71027344 0.47953125 1.42054687 0.9590625 2.15234375 1.453125 C10.33057926 7.66921187 14.72482906 18.209217 17 28 C18.06595252 41.45592012 16.74753789 53.23835632 8 64 C0.06077711 73.08983491 -9.7336202 79.8205404 -22 81 C-34.56633596 81.74886595 -45.55132327 79.24847467 -55.3515625 71.02734375 C-63.83721233 62.98158546 -70.85292936 52.69832158 -71.43359375 40.72265625 C-71.45066149 38.83601425 -71.45170488 36.94916573 -71.4375 35.0625 C-71.4674707 33.65581055 -71.4674707 33.65581055 -71.49804688 32.22070312 C-71.4934539 25.61141654 -70.17168141 20.78103949 -67 15 C-66.53078125 14.14148438 -66.0615625 13.28296875 -65.578125 12.3984375 C-58.73483796 1.97248842 -48.60707753 -5.46722502 -36.421875 -8.6796875 C-22.96979488 -10.45883358 -11.05755443 -7.85816051 0 0 Z " fill="#FCFDFD" transform="translate(1062,390)"/>
<path d="M0 0 C8.1349736 7.23641245 13.91786498 15.98085787 14.734375 27.05078125 C14.77633858 29.13760546 14.78074117 31.22548031 14.75 33.3125 C14.7404126 34.4068335 14.7308252 35.50116699 14.72094727 36.62866211 C14.41547181 45.97233211 12.49433138 52.4074397 7 60 C6.44828125 60.78117187 5.8965625 61.56234375 5.328125 62.3671875 C-1.34261023 70.78502005 -10.32010721 76.57686903 -21 78 C-35.046507 79.07695376 -46.00845566 78.08320352 -57.45703125 69.234375 C-66.68300221 61.12799191 -73.25625792 49.48384867 -74.3359375 37.16796875 C-74.41614085 28.99524775 -74.06290605 22.27236143 -70 15 C-69.50242187 14.08605469 -69.00484375 13.17210937 -68.4921875 12.23046875 C-61.88006217 0.98985569 -52.71335335 -6.4968514 -40.1875 -10.3125 C-24.84325708 -13.53634094 -12.32274194 -9.06855101 0 0 Z " fill="#FDFDFE" transform="translate(1259,392)"/>
<path d="M0 0 C10.23026003 6.96590356 16.94500401 15.65121445 20.25 27.75 C20.67934241 31.21896224 20.72711911 34.63254359 20.6875 38.125 C20.67992676 39.05530029 20.67235352 39.98560059 20.66455078 40.9440918 C20.40435617 51.75166417 17.01705228 58.49568348 10.25 66.75 C9.38375 68.0184375 9.38375 68.0184375 8.5 69.3125 C0.69472665 77.7682128 -9.13944803 81.97941175 -20.4921875 83.12890625 C-32.60412524 83.51282248 -42.66490242 80.9018276 -51.75 72.75 C-52.41644531 72.19828125 -53.08289062 71.6465625 -53.76953125 71.078125 C-61.7761702 63.91348441 -67.87616598 52.26497256 -69.12109375 41.55859375 C-69.39786674 27.5082945 -64.47726272 15.9763151 -54.875 5.75390625 C-39.86947469 -8.31377373 -17.55564835 -10.61448848 0 0 Z " fill="#FCFDFE" transform="translate(1155.75,485.25)"/>
<path d="M0 0 C0.95583984 -0.02900391 1.91167969 -0.05800781 2.89648438 -0.08789062 C12.1865158 -0.17021538 18.8836965 2.82164524 26.3125 8.3125 C27.14201172 8.90611328 27.14201172 8.90611328 27.98828125 9.51171875 C35.38609867 15.2364156 42.3439794 25.20376866 43.62792969 34.62768555 C43.78777993 37.23950621 43.83117666 39.8208759 43.8125 42.4375 C43.80677979 43.36530273 43.80105957 44.29310547 43.79516602 45.24902344 C43.46048106 58.19918996 38.6411289 67.74131601 29.66015625 77.01953125 C19.76853083 86.21292429 7.58062041 89.08119058 -5.57421875 88.69140625 C-17.09930331 87.94064776 -26.55244492 81.83555784 -34.3125 73.6875 C-42.4800143 63.95002871 -46.28539763 52.58485112 -46.05859375 40.00390625 C-44.80937838 27.57750071 -37.81243984 16.23522542 -28.25 8.375 C-19.20529333 1.84966664 -10.92367558 0.10829817 0 0 Z " fill="#FCFDFE" transform="translate(1132.6875,284.6875)"/>
</svg>
